G75*
%MOIN*%
%OFA0B0*%
%FSLAX25Y25*%
%IPPOS*%
%LPD*%
%AMOC8*
5,1,8,0,0,1.08239X$1,22.5*
%
%ADD10OC8,0.06600*%
%ADD11C,0.06600*%
%ADD12OC8,0.06200*%
%ADD13OC8,0.05906*%
%ADD14C,0.08858*%
%ADD15OC8,0.08858*%
%ADD16C,0.20000*%
%ADD17C,0.04000*%
%ADD18C,0.02400*%
D10*
X0119786Y0097200D03*
D11*
X0119786Y0087200D03*
D12*
X0074786Y0069700D03*
X0074786Y0034700D03*
D13*
X0099786Y0042200D03*
X0109786Y0034700D03*
X0119786Y0042200D03*
D14*
X0023054Y0036629D02*
X0023054Y0027771D01*
D15*
X0036046Y0014287D03*
X0066361Y0016452D03*
X0048250Y0042633D03*
X0053762Y0052082D03*
D16*
X0046991Y0079483D03*
X0034786Y0097200D03*
X0062345Y0097200D03*
D17*
X0119786Y0097200D01*
X0119786Y0087200D02*
X0119786Y0042200D01*
X0109786Y0034700D02*
X0079806Y0034476D01*
X0079786Y0034497D01*
X0074786Y0034700D01*
X0079806Y0034476D02*
X0054372Y0034287D01*
X0036046Y0014287D01*
X0023054Y0032200D02*
X0023054Y0062200D01*
X0067286Y0062200D01*
X0074786Y0069700D01*
X0099786Y0042200D01*
X0034786Y0097200D02*
X0023054Y0085468D01*
X0023054Y0062200D01*
D18*
X0019986Y0116961D02*
X0019986Y0007400D01*
X0031577Y0007400D01*
X0028017Y0010961D01*
X0028017Y0017612D01*
X0032720Y0022316D01*
X0035808Y0022316D01*
X0047068Y0034604D01*
X0044925Y0034604D01*
X0040221Y0039307D01*
X0040221Y0045959D01*
X0044925Y0050662D01*
X0045733Y0050662D01*
X0045733Y0055408D01*
X0050436Y0060111D01*
X0057088Y0060111D01*
X0061791Y0055408D01*
X0061791Y0048756D01*
X0057088Y0044053D01*
X0056280Y0044053D01*
X0056280Y0039901D01*
X0070619Y0040008D01*
X0072011Y0041400D01*
X0077561Y0041400D01*
X0078820Y0040141D01*
X0079900Y0040097D01*
X0080900Y0040097D01*
X0080928Y0040085D01*
X0106091Y0040273D01*
X0107072Y0041253D01*
X0112500Y0041253D01*
X0113233Y0040520D01*
X0113233Y0044914D01*
X0114186Y0045867D01*
X0114186Y0083042D01*
X0113936Y0083291D01*
X0112886Y0085827D01*
X0112886Y0088572D01*
X0113936Y0091109D01*
X0114428Y0091600D01*
X0074816Y0091600D01*
X0073228Y0088849D01*
X0070695Y0086317D01*
X0067594Y0084527D01*
X0064135Y0083600D01*
X0060554Y0083600D01*
X0059922Y0083770D01*
X0060591Y0081274D01*
X0060591Y0077693D01*
X0059664Y0074234D01*
X0057873Y0071133D01*
X0055341Y0068601D01*
X0052240Y0066810D01*
X0048781Y0065883D01*
X0045200Y0065883D01*
X0041741Y0066810D01*
X0038640Y0068601D01*
X0036108Y0071133D01*
X0034317Y0074234D01*
X0033391Y0077693D01*
X0033391Y0081274D01*
X0034317Y0084733D01*
X0036108Y0087834D01*
X0038640Y0090366D01*
X0041741Y0092157D01*
X0045200Y0093083D01*
X0048781Y0093083D01*
X0049414Y0092914D01*
X0048745Y0095410D01*
X0048745Y0098990D01*
X0049672Y0102449D01*
X0051462Y0105551D01*
X0053994Y0108083D01*
X0057095Y0109873D01*
X0060554Y0110800D01*
X0064135Y0110800D01*
X0067594Y0109873D01*
X0070695Y0108083D01*
X0073228Y0105551D01*
X0074816Y0102800D01*
X0115628Y0102800D01*
X0116928Y0104100D01*
X0122644Y0104100D01*
X0126686Y0100058D01*
X0126686Y0094342D01*
X0124544Y0092200D01*
X0125635Y0091109D01*
X0126686Y0088572D01*
X0126686Y0085827D01*
X0125635Y0083291D01*
X0125386Y0083042D01*
X0125386Y0045867D01*
X0126339Y0044914D01*
X0126339Y0039486D01*
X0122500Y0035647D01*
X0117072Y0035647D01*
X0116339Y0036380D01*
X0116339Y0031986D01*
X0112500Y0028147D01*
X0107072Y0028147D01*
X0106146Y0029073D01*
X0080940Y0028885D01*
X0080920Y0028876D01*
X0080727Y0028876D01*
X0080671Y0028856D01*
X0080171Y0028876D01*
X0079827Y0028876D01*
X0078734Y0028868D01*
X0078427Y0028866D01*
X0077561Y0028000D01*
X0072011Y0028000D01*
X0071199Y0028812D01*
X0056853Y0028705D01*
X0044075Y0014760D01*
X0044075Y0010961D01*
X0040514Y0007400D01*
X0133287Y0007400D01*
X0133287Y0116961D01*
X0019986Y0116961D01*
X0019986Y0114930D02*
X0133287Y0114930D01*
X0133287Y0112532D02*
X0019986Y0112532D01*
X0019986Y0110133D02*
X0058065Y0110133D01*
X0053646Y0107734D02*
X0019986Y0107734D01*
X0019986Y0105336D02*
X0051338Y0105336D01*
X0049953Y0102937D02*
X0019986Y0102937D01*
X0019986Y0100539D02*
X0049160Y0100539D01*
X0048745Y0098140D02*
X0019986Y0098140D01*
X0019986Y0095742D02*
X0048745Y0095742D01*
X0049298Y0093343D02*
X0019986Y0093343D01*
X0019986Y0090945D02*
X0039642Y0090945D01*
X0036820Y0088546D02*
X0019986Y0088546D01*
X0019986Y0086148D02*
X0035134Y0086148D01*
X0034054Y0083749D02*
X0019986Y0083749D01*
X0019986Y0081351D02*
X0033411Y0081351D01*
X0033391Y0078952D02*
X0019986Y0078952D01*
X0019986Y0076554D02*
X0033696Y0076554D01*
X0034363Y0074155D02*
X0019986Y0074155D01*
X0019986Y0071757D02*
X0035748Y0071757D01*
X0037882Y0069358D02*
X0019986Y0069358D01*
X0019986Y0066960D02*
X0041482Y0066960D01*
X0050090Y0059764D02*
X0019986Y0059764D01*
X0019986Y0062163D02*
X0114186Y0062163D01*
X0114186Y0059764D02*
X0057435Y0059764D01*
X0059833Y0057366D02*
X0114186Y0057366D01*
X0114186Y0054967D02*
X0061791Y0054967D01*
X0061791Y0052569D02*
X0114186Y0052569D01*
X0114186Y0050170D02*
X0061791Y0050170D01*
X0060807Y0047772D02*
X0114186Y0047772D01*
X0113692Y0045373D02*
X0058408Y0045373D01*
X0056280Y0042975D02*
X0113233Y0042975D01*
X0113177Y0040576D02*
X0113233Y0040576D01*
X0116339Y0035779D02*
X0116940Y0035779D01*
X0116339Y0033381D02*
X0133287Y0033381D01*
X0133287Y0035779D02*
X0122632Y0035779D01*
X0125030Y0038178D02*
X0133287Y0038178D01*
X0133287Y0040576D02*
X0126339Y0040576D01*
X0126339Y0042975D02*
X0133287Y0042975D01*
X0133287Y0045373D02*
X0125880Y0045373D01*
X0125386Y0047772D02*
X0133287Y0047772D01*
X0133287Y0050170D02*
X0125386Y0050170D01*
X0125386Y0052569D02*
X0133287Y0052569D01*
X0133287Y0054967D02*
X0125386Y0054967D01*
X0125386Y0057366D02*
X0133287Y0057366D01*
X0133287Y0059764D02*
X0125386Y0059764D01*
X0125386Y0062163D02*
X0133287Y0062163D01*
X0133287Y0064561D02*
X0125386Y0064561D01*
X0125386Y0066960D02*
X0133287Y0066960D01*
X0133287Y0069358D02*
X0125386Y0069358D01*
X0125386Y0071757D02*
X0133287Y0071757D01*
X0133287Y0074155D02*
X0125386Y0074155D01*
X0125386Y0076554D02*
X0133287Y0076554D01*
X0133287Y0078952D02*
X0125386Y0078952D01*
X0125386Y0081351D02*
X0133287Y0081351D01*
X0133287Y0083749D02*
X0125825Y0083749D01*
X0126686Y0086148D02*
X0133287Y0086148D01*
X0133287Y0088546D02*
X0126686Y0088546D01*
X0125703Y0090945D02*
X0133287Y0090945D01*
X0133287Y0093343D02*
X0125687Y0093343D01*
X0126686Y0095742D02*
X0133287Y0095742D01*
X0133287Y0098140D02*
X0126686Y0098140D01*
X0126205Y0100539D02*
X0133287Y0100539D01*
X0133287Y0102937D02*
X0123806Y0102937D01*
X0115765Y0102937D02*
X0074736Y0102937D01*
X0073351Y0105336D02*
X0133287Y0105336D01*
X0133287Y0107734D02*
X0071044Y0107734D01*
X0066625Y0110133D02*
X0133287Y0110133D01*
X0113869Y0090945D02*
X0074437Y0090945D01*
X0072925Y0088546D02*
X0112886Y0088546D01*
X0112886Y0086148D02*
X0070402Y0086148D01*
X0064693Y0083749D02*
X0113747Y0083749D01*
X0114186Y0081351D02*
X0060570Y0081351D01*
X0060591Y0078952D02*
X0114186Y0078952D01*
X0114186Y0076554D02*
X0060285Y0076554D01*
X0059618Y0074155D02*
X0114186Y0074155D01*
X0114186Y0071757D02*
X0058233Y0071757D01*
X0056099Y0069358D02*
X0114186Y0069358D01*
X0114186Y0066960D02*
X0052499Y0066960D01*
X0047691Y0057366D02*
X0019986Y0057366D01*
X0019986Y0054967D02*
X0045733Y0054967D01*
X0045733Y0052569D02*
X0019986Y0052569D01*
X0019986Y0050170D02*
X0044433Y0050170D01*
X0042034Y0047772D02*
X0019986Y0047772D01*
X0019986Y0045373D02*
X0040221Y0045373D01*
X0040221Y0042975D02*
X0019986Y0042975D01*
X0019986Y0040576D02*
X0040221Y0040576D01*
X0041351Y0038178D02*
X0019986Y0038178D01*
X0019986Y0035779D02*
X0043749Y0035779D01*
X0045947Y0033381D02*
X0019986Y0033381D01*
X0019986Y0030982D02*
X0043749Y0030982D01*
X0041551Y0028584D02*
X0019986Y0028584D01*
X0019986Y0026185D02*
X0039353Y0026185D01*
X0037155Y0023787D02*
X0019986Y0023787D01*
X0019986Y0021388D02*
X0031792Y0021388D01*
X0029394Y0018990D02*
X0019986Y0018990D01*
X0019986Y0016591D02*
X0028017Y0016591D01*
X0028017Y0014193D02*
X0019986Y0014193D01*
X0019986Y0011794D02*
X0028017Y0011794D01*
X0029582Y0009396D02*
X0019986Y0009396D01*
X0042509Y0009396D02*
X0062062Y0009396D01*
X0063035Y0008423D02*
X0069686Y0008423D01*
X0074390Y0013126D01*
X0074390Y0019778D01*
X0069686Y0024481D01*
X0063035Y0024481D01*
X0058331Y0019778D01*
X0058331Y0013126D01*
X0063035Y0008423D01*
X0059664Y0011794D02*
X0044075Y0011794D01*
X0044075Y0014193D02*
X0058331Y0014193D01*
X0058331Y0016591D02*
X0045753Y0016591D01*
X0047951Y0018990D02*
X0058331Y0018990D01*
X0059942Y0021388D02*
X0050149Y0021388D01*
X0052346Y0023787D02*
X0062340Y0023787D01*
X0056742Y0028584D02*
X0071427Y0028584D01*
X0070381Y0023787D02*
X0133287Y0023787D01*
X0133287Y0026185D02*
X0054544Y0026185D01*
X0056280Y0040576D02*
X0071187Y0040576D01*
X0078385Y0040576D02*
X0106395Y0040576D01*
X0115335Y0030982D02*
X0133287Y0030982D01*
X0133287Y0028584D02*
X0112936Y0028584D01*
X0106635Y0028584D02*
X0078145Y0028584D01*
X0072779Y0021388D02*
X0133287Y0021388D01*
X0133287Y0018990D02*
X0074390Y0018990D01*
X0074390Y0016591D02*
X0133287Y0016591D01*
X0133287Y0014193D02*
X0074390Y0014193D01*
X0073058Y0011794D02*
X0133287Y0011794D01*
X0133287Y0009396D02*
X0070659Y0009396D01*
X0114186Y0064561D02*
X0019986Y0064561D01*
X0059927Y0083749D02*
X0059997Y0083749D01*
M02*
