G75*
%MOIN*%
%OFA0B0*%
%FSLAX25Y25*%
%IPPOS*%
%LPD*%
%AMOC8*
5,1,8,0,0,1.08239X$1,22.5*
%
%ADD10C,0.00000*%
%ADD11C,0.00500*%
%ADD12C,0.00600*%
%ADD13C,0.00800*%
%ADD14C,0.00100*%
%ADD15R,0.02000X0.01500*%
%ADD16C,0.00060*%
%ADD17C,0.00400*%
D10*
X0014786Y0002200D02*
X0014786Y0122161D01*
X0138487Y0122161D01*
X0138487Y0002200D01*
X0014786Y0002200D01*
D11*
X0080133Y0055268D02*
X0080133Y0056969D01*
X0080700Y0057536D01*
X0081834Y0057536D01*
X0082402Y0056969D01*
X0082402Y0055268D01*
X0083536Y0055268D02*
X0080133Y0055268D01*
X0082402Y0056402D02*
X0083536Y0057536D01*
X0083536Y0058859D02*
X0083536Y0061128D01*
X0083536Y0059993D02*
X0080133Y0059993D01*
X0081267Y0058859D01*
X0062345Y0079483D02*
X0015101Y0079483D01*
X0015101Y0114917D01*
X0007227Y0114917D01*
X0007227Y0079483D01*
X0015101Y0079483D01*
X0015101Y0114917D02*
X0062345Y0114917D01*
X0062345Y0079483D01*
X0104829Y0030204D02*
X0104829Y0024199D01*
X0104079Y0024950D02*
X0103328Y0025701D01*
X0104079Y0024950D02*
X0105580Y0024950D01*
X0106331Y0025701D01*
X0106331Y0026451D01*
X0105580Y0027202D01*
X0104079Y0027202D01*
X0103328Y0027953D01*
X0103328Y0028703D01*
X0104079Y0029454D01*
X0105580Y0029454D01*
X0106331Y0028703D01*
X0107932Y0027953D02*
X0109433Y0029454D01*
X0109433Y0024950D01*
X0107932Y0024950D02*
X0110934Y0024950D01*
X0101727Y0025701D02*
X0101727Y0029454D01*
X0098724Y0029454D02*
X0098724Y0025701D01*
X0099475Y0024950D01*
X0100976Y0024950D01*
X0101727Y0025701D01*
X0122132Y0061534D02*
X0126636Y0061534D01*
X0126636Y0064537D01*
X0126636Y0066138D02*
X0126636Y0069141D01*
X0126636Y0070742D02*
X0126636Y0072994D01*
X0125885Y0073745D01*
X0122883Y0073745D01*
X0122132Y0072994D01*
X0122132Y0070742D01*
X0126636Y0070742D01*
X0124384Y0067639D02*
X0124384Y0066138D01*
X0122132Y0066138D02*
X0126636Y0066138D01*
X0122132Y0066138D02*
X0122132Y0069141D01*
X0123633Y0075346D02*
X0122132Y0076847D01*
X0126636Y0076847D01*
X0126636Y0075346D02*
X0126636Y0078349D01*
D12*
X0109786Y0092200D02*
X0109789Y0092445D01*
X0109798Y0092691D01*
X0109813Y0092936D01*
X0109834Y0093180D01*
X0109861Y0093424D01*
X0109894Y0093667D01*
X0109933Y0093910D01*
X0109978Y0094151D01*
X0110029Y0094391D01*
X0110086Y0094630D01*
X0110148Y0094867D01*
X0110217Y0095103D01*
X0110291Y0095337D01*
X0110371Y0095569D01*
X0110456Y0095799D01*
X0110547Y0096027D01*
X0110644Y0096252D01*
X0110746Y0096476D01*
X0110854Y0096696D01*
X0110967Y0096914D01*
X0111085Y0097129D01*
X0111209Y0097341D01*
X0111337Y0097550D01*
X0111471Y0097756D01*
X0111610Y0097958D01*
X0111754Y0098157D01*
X0111903Y0098352D01*
X0112056Y0098544D01*
X0112214Y0098732D01*
X0112376Y0098916D01*
X0112544Y0099095D01*
X0112715Y0099271D01*
X0112891Y0099442D01*
X0113070Y0099610D01*
X0113254Y0099772D01*
X0113442Y0099930D01*
X0113634Y0100083D01*
X0113829Y0100232D01*
X0114028Y0100376D01*
X0114230Y0100515D01*
X0114436Y0100649D01*
X0114645Y0100777D01*
X0114857Y0100901D01*
X0115072Y0101019D01*
X0115290Y0101132D01*
X0115510Y0101240D01*
X0115734Y0101342D01*
X0115959Y0101439D01*
X0116187Y0101530D01*
X0116417Y0101615D01*
X0116649Y0101695D01*
X0116883Y0101769D01*
X0117119Y0101838D01*
X0117356Y0101900D01*
X0117595Y0101957D01*
X0117835Y0102008D01*
X0118076Y0102053D01*
X0118319Y0102092D01*
X0118562Y0102125D01*
X0118806Y0102152D01*
X0119050Y0102173D01*
X0119295Y0102188D01*
X0119541Y0102197D01*
X0119786Y0102200D01*
X0120031Y0102197D01*
X0120277Y0102188D01*
X0120522Y0102173D01*
X0120766Y0102152D01*
X0121010Y0102125D01*
X0121253Y0102092D01*
X0121496Y0102053D01*
X0121737Y0102008D01*
X0121977Y0101957D01*
X0122216Y0101900D01*
X0122453Y0101838D01*
X0122689Y0101769D01*
X0122923Y0101695D01*
X0123155Y0101615D01*
X0123385Y0101530D01*
X0123613Y0101439D01*
X0123838Y0101342D01*
X0124062Y0101240D01*
X0124282Y0101132D01*
X0124500Y0101019D01*
X0124715Y0100901D01*
X0124927Y0100777D01*
X0125136Y0100649D01*
X0125342Y0100515D01*
X0125544Y0100376D01*
X0125743Y0100232D01*
X0125938Y0100083D01*
X0126130Y0099930D01*
X0126318Y0099772D01*
X0126502Y0099610D01*
X0126681Y0099442D01*
X0126857Y0099271D01*
X0127028Y0099095D01*
X0127196Y0098916D01*
X0127358Y0098732D01*
X0127516Y0098544D01*
X0127669Y0098352D01*
X0127818Y0098157D01*
X0127962Y0097958D01*
X0128101Y0097756D01*
X0128235Y0097550D01*
X0128363Y0097341D01*
X0128487Y0097129D01*
X0128605Y0096914D01*
X0128718Y0096696D01*
X0128826Y0096476D01*
X0128928Y0096252D01*
X0129025Y0096027D01*
X0129116Y0095799D01*
X0129201Y0095569D01*
X0129281Y0095337D01*
X0129355Y0095103D01*
X0129424Y0094867D01*
X0129486Y0094630D01*
X0129543Y0094391D01*
X0129594Y0094151D01*
X0129639Y0093910D01*
X0129678Y0093667D01*
X0129711Y0093424D01*
X0129738Y0093180D01*
X0129759Y0092936D01*
X0129774Y0092691D01*
X0129783Y0092445D01*
X0129786Y0092200D01*
X0129783Y0091955D01*
X0129774Y0091709D01*
X0129759Y0091464D01*
X0129738Y0091220D01*
X0129711Y0090976D01*
X0129678Y0090733D01*
X0129639Y0090490D01*
X0129594Y0090249D01*
X0129543Y0090009D01*
X0129486Y0089770D01*
X0129424Y0089533D01*
X0129355Y0089297D01*
X0129281Y0089063D01*
X0129201Y0088831D01*
X0129116Y0088601D01*
X0129025Y0088373D01*
X0128928Y0088148D01*
X0128826Y0087924D01*
X0128718Y0087704D01*
X0128605Y0087486D01*
X0128487Y0087271D01*
X0128363Y0087059D01*
X0128235Y0086850D01*
X0128101Y0086644D01*
X0127962Y0086442D01*
X0127818Y0086243D01*
X0127669Y0086048D01*
X0127516Y0085856D01*
X0127358Y0085668D01*
X0127196Y0085484D01*
X0127028Y0085305D01*
X0126857Y0085129D01*
X0126681Y0084958D01*
X0126502Y0084790D01*
X0126318Y0084628D01*
X0126130Y0084470D01*
X0125938Y0084317D01*
X0125743Y0084168D01*
X0125544Y0084024D01*
X0125342Y0083885D01*
X0125136Y0083751D01*
X0124927Y0083623D01*
X0124715Y0083499D01*
X0124500Y0083381D01*
X0124282Y0083268D01*
X0124062Y0083160D01*
X0123838Y0083058D01*
X0123613Y0082961D01*
X0123385Y0082870D01*
X0123155Y0082785D01*
X0122923Y0082705D01*
X0122689Y0082631D01*
X0122453Y0082562D01*
X0122216Y0082500D01*
X0121977Y0082443D01*
X0121737Y0082392D01*
X0121496Y0082347D01*
X0121253Y0082308D01*
X0121010Y0082275D01*
X0120766Y0082248D01*
X0120522Y0082227D01*
X0120277Y0082212D01*
X0120031Y0082203D01*
X0119786Y0082200D01*
X0119541Y0082203D01*
X0119295Y0082212D01*
X0119050Y0082227D01*
X0118806Y0082248D01*
X0118562Y0082275D01*
X0118319Y0082308D01*
X0118076Y0082347D01*
X0117835Y0082392D01*
X0117595Y0082443D01*
X0117356Y0082500D01*
X0117119Y0082562D01*
X0116883Y0082631D01*
X0116649Y0082705D01*
X0116417Y0082785D01*
X0116187Y0082870D01*
X0115959Y0082961D01*
X0115734Y0083058D01*
X0115510Y0083160D01*
X0115290Y0083268D01*
X0115072Y0083381D01*
X0114857Y0083499D01*
X0114645Y0083623D01*
X0114436Y0083751D01*
X0114230Y0083885D01*
X0114028Y0084024D01*
X0113829Y0084168D01*
X0113634Y0084317D01*
X0113442Y0084470D01*
X0113254Y0084628D01*
X0113070Y0084790D01*
X0112891Y0084958D01*
X0112715Y0085129D01*
X0112544Y0085305D01*
X0112376Y0085484D01*
X0112214Y0085668D01*
X0112056Y0085856D01*
X0111903Y0086048D01*
X0111754Y0086243D01*
X0111610Y0086442D01*
X0111471Y0086644D01*
X0111337Y0086850D01*
X0111209Y0087059D01*
X0111085Y0087271D01*
X0110967Y0087486D01*
X0110854Y0087704D01*
X0110746Y0087924D01*
X0110644Y0088148D01*
X0110547Y0088373D01*
X0110456Y0088601D01*
X0110371Y0088831D01*
X0110291Y0089063D01*
X0110217Y0089297D01*
X0110148Y0089533D01*
X0110086Y0089770D01*
X0110029Y0090009D01*
X0109978Y0090249D01*
X0109933Y0090490D01*
X0109894Y0090733D01*
X0109861Y0090976D01*
X0109834Y0091220D01*
X0109813Y0091464D01*
X0109798Y0091709D01*
X0109789Y0091955D01*
X0109786Y0092200D01*
X0077786Y0062200D02*
X0071786Y0062200D01*
X0071726Y0062198D01*
X0071665Y0062193D01*
X0071606Y0062184D01*
X0071547Y0062171D01*
X0071488Y0062155D01*
X0071431Y0062135D01*
X0071376Y0062112D01*
X0071321Y0062085D01*
X0071269Y0062056D01*
X0071218Y0062023D01*
X0071169Y0061987D01*
X0071123Y0061949D01*
X0071079Y0061907D01*
X0071037Y0061863D01*
X0070999Y0061817D01*
X0070963Y0061768D01*
X0070930Y0061717D01*
X0070901Y0061665D01*
X0070874Y0061610D01*
X0070851Y0061555D01*
X0070831Y0061498D01*
X0070815Y0061439D01*
X0070802Y0061380D01*
X0070793Y0061321D01*
X0070788Y0061260D01*
X0070786Y0061200D01*
X0070786Y0059700D01*
X0071286Y0059200D01*
X0071286Y0045200D01*
X0070786Y0044700D01*
X0070786Y0043200D01*
X0070788Y0043140D01*
X0070793Y0043079D01*
X0070802Y0043020D01*
X0070815Y0042961D01*
X0070831Y0042902D01*
X0070851Y0042845D01*
X0070874Y0042790D01*
X0070901Y0042735D01*
X0070930Y0042683D01*
X0070963Y0042632D01*
X0070999Y0042583D01*
X0071037Y0042537D01*
X0071079Y0042493D01*
X0071123Y0042451D01*
X0071169Y0042413D01*
X0071218Y0042377D01*
X0071269Y0042344D01*
X0071321Y0042315D01*
X0071376Y0042288D01*
X0071431Y0042265D01*
X0071488Y0042245D01*
X0071547Y0042229D01*
X0071606Y0042216D01*
X0071665Y0042207D01*
X0071726Y0042202D01*
X0071786Y0042200D01*
X0077786Y0042200D01*
X0077846Y0042202D01*
X0077907Y0042207D01*
X0077966Y0042216D01*
X0078025Y0042229D01*
X0078084Y0042245D01*
X0078141Y0042265D01*
X0078196Y0042288D01*
X0078251Y0042315D01*
X0078303Y0042344D01*
X0078354Y0042377D01*
X0078403Y0042413D01*
X0078449Y0042451D01*
X0078493Y0042493D01*
X0078535Y0042537D01*
X0078573Y0042583D01*
X0078609Y0042632D01*
X0078642Y0042683D01*
X0078671Y0042735D01*
X0078698Y0042790D01*
X0078721Y0042845D01*
X0078741Y0042902D01*
X0078757Y0042961D01*
X0078770Y0043020D01*
X0078779Y0043079D01*
X0078784Y0043140D01*
X0078786Y0043200D01*
X0078786Y0044700D01*
X0078286Y0045200D01*
X0078286Y0059200D01*
X0078786Y0059700D01*
X0078786Y0061200D01*
X0078784Y0061260D01*
X0078779Y0061321D01*
X0078770Y0061380D01*
X0078757Y0061439D01*
X0078741Y0061498D01*
X0078721Y0061555D01*
X0078698Y0061610D01*
X0078671Y0061665D01*
X0078642Y0061717D01*
X0078609Y0061768D01*
X0078573Y0061817D01*
X0078535Y0061863D01*
X0078493Y0061907D01*
X0078449Y0061949D01*
X0078403Y0061987D01*
X0078354Y0062023D01*
X0078303Y0062056D01*
X0078251Y0062085D01*
X0078196Y0062112D01*
X0078141Y0062135D01*
X0078084Y0062155D01*
X0078025Y0062171D01*
X0077966Y0062184D01*
X0077907Y0062193D01*
X0077846Y0062198D01*
X0077786Y0062200D01*
X0099333Y0043200D02*
X0100912Y0043200D01*
X0101538Y0048700D02*
X0118034Y0048700D01*
X0118660Y0043200D02*
X0120239Y0043200D01*
X0110912Y0043200D02*
X0108660Y0043200D01*
D13*
X0069904Y0055428D02*
X0069904Y0010940D01*
X0015180Y0010940D01*
X0015180Y0055428D01*
X0069904Y0055428D01*
X0112286Y0082200D02*
X0127286Y0082200D01*
X0014786Y0043617D02*
X0001400Y0043617D01*
X0001400Y0020783D01*
X0014786Y0020783D01*
D14*
X0127595Y0081871D02*
X0127055Y0082591D01*
X0127056Y0082590D02*
X0127289Y0082771D01*
X0127517Y0082957D01*
X0127741Y0083149D01*
X0127960Y0083346D01*
X0128174Y0083548D01*
X0128383Y0083756D01*
X0128586Y0083969D01*
X0128785Y0084186D01*
X0128978Y0084409D01*
X0129166Y0084636D01*
X0129348Y0084867D01*
X0129525Y0085103D01*
X0129695Y0085344D01*
X0129860Y0085588D01*
X0130018Y0085836D01*
X0130171Y0086088D01*
X0130317Y0086344D01*
X0130457Y0086603D01*
X0130591Y0086866D01*
X0130718Y0087131D01*
X0130839Y0087400D01*
X0130953Y0087672D01*
X0131060Y0087946D01*
X0131161Y0088223D01*
X0131255Y0088502D01*
X0131342Y0088784D01*
X0131422Y0089067D01*
X0131495Y0089353D01*
X0131561Y0089640D01*
X0131620Y0089929D01*
X0131672Y0090219D01*
X0131717Y0090510D01*
X0131755Y0090802D01*
X0131785Y0091095D01*
X0131809Y0091389D01*
X0131825Y0091683D01*
X0131834Y0091977D01*
X0131836Y0092272D01*
X0131830Y0092567D01*
X0131818Y0092861D01*
X0131798Y0093155D01*
X0131771Y0093448D01*
X0131737Y0093741D01*
X0131696Y0094033D01*
X0131647Y0094323D01*
X0131592Y0094613D01*
X0131530Y0094900D01*
X0131460Y0095187D01*
X0131383Y0095471D01*
X0131300Y0095754D01*
X0131210Y0096034D01*
X0131113Y0096312D01*
X0131009Y0096588D01*
X0130898Y0096861D01*
X0130781Y0097131D01*
X0130657Y0097399D01*
X0130527Y0097663D01*
X0130390Y0097924D01*
X0130247Y0098181D01*
X0130097Y0098435D01*
X0129942Y0098686D01*
X0129780Y0098932D01*
X0129613Y0099174D01*
X0129439Y0099412D01*
X0129260Y0099646D01*
X0129075Y0099876D01*
X0128885Y0100100D01*
X0128689Y0100321D01*
X0128488Y0100536D01*
X0128281Y0100746D01*
X0128070Y0100951D01*
X0127853Y0101151D01*
X0127632Y0101346D01*
X0127406Y0101535D01*
X0127176Y0101718D01*
X0126941Y0101896D01*
X0126701Y0102068D01*
X0126458Y0102234D01*
X0126211Y0102394D01*
X0125960Y0102548D01*
X0125705Y0102696D01*
X0125446Y0102838D01*
X0125185Y0102973D01*
X0124920Y0103102D01*
X0124652Y0103224D01*
X0124381Y0103340D01*
X0124107Y0103449D01*
X0123831Y0103551D01*
X0123552Y0103646D01*
X0123271Y0103735D01*
X0122988Y0103817D01*
X0122703Y0103892D01*
X0122416Y0103959D01*
X0122128Y0104020D01*
X0121838Y0104074D01*
X0121547Y0104121D01*
X0121255Y0104160D01*
X0120963Y0104192D01*
X0120669Y0104218D01*
X0120375Y0104236D01*
X0120081Y0104246D01*
X0119786Y0104250D01*
X0119491Y0104246D01*
X0119197Y0104236D01*
X0118903Y0104218D01*
X0118609Y0104192D01*
X0118317Y0104160D01*
X0118025Y0104121D01*
X0117734Y0104074D01*
X0117444Y0104020D01*
X0117156Y0103959D01*
X0116869Y0103892D01*
X0116584Y0103817D01*
X0116301Y0103735D01*
X0116020Y0103646D01*
X0115741Y0103551D01*
X0115465Y0103449D01*
X0115191Y0103340D01*
X0114920Y0103224D01*
X0114652Y0103102D01*
X0114387Y0102973D01*
X0114126Y0102838D01*
X0113867Y0102696D01*
X0113612Y0102548D01*
X0113361Y0102394D01*
X0113114Y0102234D01*
X0112871Y0102068D01*
X0112631Y0101896D01*
X0112396Y0101718D01*
X0112166Y0101535D01*
X0111940Y0101346D01*
X0111719Y0101151D01*
X0111502Y0100951D01*
X0111291Y0100746D01*
X0111084Y0100536D01*
X0110883Y0100321D01*
X0110687Y0100100D01*
X0110497Y0099876D01*
X0110312Y0099646D01*
X0110133Y0099412D01*
X0109959Y0099174D01*
X0109792Y0098932D01*
X0109630Y0098686D01*
X0109475Y0098435D01*
X0109325Y0098181D01*
X0109182Y0097924D01*
X0109045Y0097663D01*
X0108915Y0097399D01*
X0108791Y0097131D01*
X0108674Y0096861D01*
X0108563Y0096588D01*
X0108459Y0096312D01*
X0108362Y0096034D01*
X0108272Y0095754D01*
X0108189Y0095471D01*
X0108112Y0095187D01*
X0108042Y0094900D01*
X0107980Y0094613D01*
X0107925Y0094323D01*
X0107876Y0094033D01*
X0107835Y0093741D01*
X0107801Y0093448D01*
X0107774Y0093155D01*
X0107754Y0092861D01*
X0107742Y0092567D01*
X0107736Y0092272D01*
X0107738Y0091977D01*
X0107747Y0091683D01*
X0107763Y0091389D01*
X0107787Y0091095D01*
X0107817Y0090802D01*
X0107855Y0090510D01*
X0107900Y0090219D01*
X0107952Y0089929D01*
X0108011Y0089640D01*
X0108077Y0089353D01*
X0108150Y0089067D01*
X0108230Y0088784D01*
X0108317Y0088502D01*
X0108411Y0088223D01*
X0108512Y0087946D01*
X0108619Y0087672D01*
X0108733Y0087400D01*
X0108854Y0087131D01*
X0108981Y0086866D01*
X0109115Y0086603D01*
X0109255Y0086344D01*
X0109401Y0086088D01*
X0109554Y0085836D01*
X0109712Y0085588D01*
X0109877Y0085344D01*
X0110047Y0085103D01*
X0110224Y0084867D01*
X0110406Y0084636D01*
X0110594Y0084409D01*
X0110787Y0084186D01*
X0110986Y0083969D01*
X0111189Y0083756D01*
X0111398Y0083548D01*
X0111612Y0083346D01*
X0111831Y0083149D01*
X0112055Y0082957D01*
X0112283Y0082771D01*
X0112516Y0082590D01*
X0111977Y0081871D01*
X0111976Y0081870D01*
X0111726Y0082064D01*
X0111480Y0082264D01*
X0111240Y0082470D01*
X0111005Y0082682D01*
X0110774Y0082900D01*
X0110550Y0083123D01*
X0110331Y0083351D01*
X0110117Y0083585D01*
X0109909Y0083824D01*
X0109707Y0084068D01*
X0109512Y0084317D01*
X0109322Y0084571D01*
X0109139Y0084829D01*
X0108962Y0085091D01*
X0108791Y0085358D01*
X0108627Y0085629D01*
X0108470Y0085904D01*
X0108319Y0086182D01*
X0108175Y0086465D01*
X0108039Y0086750D01*
X0107909Y0087039D01*
X0107786Y0087331D01*
X0107671Y0087626D01*
X0107563Y0087923D01*
X0107462Y0088224D01*
X0107368Y0088526D01*
X0107282Y0088831D01*
X0107203Y0089138D01*
X0107132Y0089446D01*
X0107069Y0089756D01*
X0107013Y0090068D01*
X0106964Y0090381D01*
X0106924Y0090695D01*
X0106891Y0091010D01*
X0106866Y0091326D01*
X0106848Y0091642D01*
X0106838Y0091958D01*
X0106836Y0092275D01*
X0106842Y0092592D01*
X0106855Y0092908D01*
X0106877Y0093224D01*
X0106905Y0093539D01*
X0106942Y0093854D01*
X0106986Y0094167D01*
X0107038Y0094480D01*
X0107098Y0094791D01*
X0107165Y0095100D01*
X0107240Y0095408D01*
X0107322Y0095714D01*
X0107411Y0096017D01*
X0107508Y0096319D01*
X0107613Y0096618D01*
X0107725Y0096914D01*
X0107843Y0097208D01*
X0107969Y0097498D01*
X0108102Y0097786D01*
X0108243Y0098070D01*
X0108390Y0098350D01*
X0108543Y0098627D01*
X0108704Y0098900D01*
X0108871Y0099169D01*
X0109045Y0099434D01*
X0109225Y0099694D01*
X0109411Y0099950D01*
X0109604Y0100201D01*
X0109802Y0100448D01*
X0110007Y0100690D01*
X0110217Y0100926D01*
X0110434Y0101158D01*
X0110656Y0101384D01*
X0110883Y0101604D01*
X0111115Y0101819D01*
X0111353Y0102028D01*
X0111596Y0102231D01*
X0111844Y0102429D01*
X0112096Y0102620D01*
X0112353Y0102805D01*
X0112615Y0102983D01*
X0112881Y0103155D01*
X0113150Y0103321D01*
X0113424Y0103480D01*
X0113702Y0103632D01*
X0113983Y0103777D01*
X0114268Y0103916D01*
X0114556Y0104047D01*
X0114848Y0104171D01*
X0115142Y0104289D01*
X0115439Y0104399D01*
X0115738Y0104501D01*
X0116040Y0104596D01*
X0116344Y0104684D01*
X0116651Y0104765D01*
X0116959Y0104838D01*
X0117269Y0104903D01*
X0117580Y0104961D01*
X0117893Y0105011D01*
X0118207Y0105053D01*
X0118521Y0105088D01*
X0118837Y0105115D01*
X0119153Y0105135D01*
X0119469Y0105146D01*
X0119786Y0105150D01*
X0120103Y0105146D01*
X0120419Y0105135D01*
X0120735Y0105115D01*
X0121051Y0105088D01*
X0121365Y0105053D01*
X0121679Y0105011D01*
X0121992Y0104961D01*
X0122303Y0104903D01*
X0122613Y0104838D01*
X0122921Y0104765D01*
X0123228Y0104684D01*
X0123532Y0104596D01*
X0123834Y0104501D01*
X0124133Y0104399D01*
X0124430Y0104289D01*
X0124724Y0104171D01*
X0125016Y0104047D01*
X0125304Y0103916D01*
X0125589Y0103777D01*
X0125870Y0103632D01*
X0126148Y0103480D01*
X0126422Y0103321D01*
X0126691Y0103155D01*
X0126957Y0102983D01*
X0127219Y0102805D01*
X0127476Y0102620D01*
X0127728Y0102429D01*
X0127976Y0102231D01*
X0128219Y0102028D01*
X0128457Y0101819D01*
X0128689Y0101604D01*
X0128916Y0101384D01*
X0129138Y0101158D01*
X0129355Y0100926D01*
X0129565Y0100690D01*
X0129770Y0100448D01*
X0129968Y0100201D01*
X0130161Y0099950D01*
X0130347Y0099694D01*
X0130527Y0099434D01*
X0130701Y0099169D01*
X0130868Y0098900D01*
X0131029Y0098627D01*
X0131182Y0098350D01*
X0131329Y0098070D01*
X0131470Y0097786D01*
X0131603Y0097498D01*
X0131729Y0097208D01*
X0131847Y0096914D01*
X0131959Y0096618D01*
X0132064Y0096319D01*
X0132161Y0096017D01*
X0132250Y0095714D01*
X0132332Y0095408D01*
X0132407Y0095100D01*
X0132474Y0094791D01*
X0132534Y0094480D01*
X0132586Y0094167D01*
X0132630Y0093854D01*
X0132667Y0093539D01*
X0132695Y0093224D01*
X0132717Y0092908D01*
X0132730Y0092592D01*
X0132736Y0092275D01*
X0132734Y0091958D01*
X0132724Y0091642D01*
X0132706Y0091326D01*
X0132681Y0091010D01*
X0132648Y0090695D01*
X0132608Y0090381D01*
X0132559Y0090068D01*
X0132503Y0089756D01*
X0132440Y0089446D01*
X0132369Y0089138D01*
X0132290Y0088831D01*
X0132204Y0088526D01*
X0132110Y0088224D01*
X0132009Y0087923D01*
X0131901Y0087626D01*
X0131786Y0087331D01*
X0131663Y0087039D01*
X0131533Y0086750D01*
X0131397Y0086465D01*
X0131253Y0086182D01*
X0131102Y0085904D01*
X0130945Y0085629D01*
X0130781Y0085358D01*
X0130610Y0085091D01*
X0130433Y0084829D01*
X0130250Y0084571D01*
X0130060Y0084317D01*
X0129865Y0084068D01*
X0129663Y0083824D01*
X0129455Y0083585D01*
X0129241Y0083351D01*
X0129022Y0083123D01*
X0128798Y0082900D01*
X0128567Y0082682D01*
X0128332Y0082470D01*
X0128092Y0082264D01*
X0127846Y0082064D01*
X0127596Y0081870D01*
X0127540Y0081945D01*
X0127788Y0082138D01*
X0128032Y0082337D01*
X0128270Y0082541D01*
X0128504Y0082751D01*
X0128732Y0082967D01*
X0128955Y0083189D01*
X0129173Y0083416D01*
X0129385Y0083648D01*
X0129591Y0083885D01*
X0129792Y0084127D01*
X0129986Y0084375D01*
X0130174Y0084626D01*
X0130356Y0084883D01*
X0130532Y0085143D01*
X0130701Y0085408D01*
X0130864Y0085677D01*
X0131020Y0085950D01*
X0131170Y0086226D01*
X0131313Y0086506D01*
X0131448Y0086790D01*
X0131577Y0087077D01*
X0131699Y0087367D01*
X0131813Y0087659D01*
X0131921Y0087955D01*
X0132021Y0088253D01*
X0132114Y0088553D01*
X0132199Y0088856D01*
X0132277Y0089160D01*
X0132348Y0089466D01*
X0132411Y0089774D01*
X0132467Y0090084D01*
X0132515Y0090394D01*
X0132555Y0090706D01*
X0132588Y0091019D01*
X0132613Y0091332D01*
X0132630Y0091646D01*
X0132640Y0091960D01*
X0132642Y0092275D01*
X0132636Y0092589D01*
X0132623Y0092903D01*
X0132602Y0093217D01*
X0132573Y0093530D01*
X0132537Y0093842D01*
X0132493Y0094153D01*
X0132441Y0094463D01*
X0132382Y0094772D01*
X0132315Y0095079D01*
X0132241Y0095385D01*
X0132160Y0095688D01*
X0132071Y0095990D01*
X0131974Y0096289D01*
X0131871Y0096586D01*
X0131760Y0096880D01*
X0131642Y0097171D01*
X0131517Y0097460D01*
X0131385Y0097745D01*
X0131246Y0098027D01*
X0131100Y0098305D01*
X0130947Y0098580D01*
X0130788Y0098851D01*
X0130622Y0099118D01*
X0130449Y0099381D01*
X0130271Y0099640D01*
X0130086Y0099894D01*
X0129894Y0100143D01*
X0129697Y0100388D01*
X0129494Y0100628D01*
X0129285Y0100863D01*
X0129070Y0101093D01*
X0128850Y0101317D01*
X0128625Y0101536D01*
X0128394Y0101749D01*
X0128158Y0101957D01*
X0127916Y0102159D01*
X0127671Y0102354D01*
X0127420Y0102544D01*
X0127165Y0102728D01*
X0126905Y0102905D01*
X0126641Y0103076D01*
X0126373Y0103240D01*
X0126101Y0103398D01*
X0125826Y0103549D01*
X0125546Y0103693D01*
X0125264Y0103831D01*
X0124978Y0103961D01*
X0124689Y0104085D01*
X0124396Y0104201D01*
X0124102Y0104310D01*
X0123804Y0104412D01*
X0123505Y0104506D01*
X0123202Y0104594D01*
X0122898Y0104674D01*
X0122593Y0104746D01*
X0122285Y0104811D01*
X0121976Y0104868D01*
X0121665Y0104918D01*
X0121354Y0104960D01*
X0121041Y0104995D01*
X0120728Y0105021D01*
X0120414Y0105041D01*
X0120100Y0105052D01*
X0119786Y0105056D01*
X0119472Y0105052D01*
X0119158Y0105041D01*
X0118844Y0105021D01*
X0118531Y0104995D01*
X0118218Y0104960D01*
X0117907Y0104918D01*
X0117596Y0104868D01*
X0117287Y0104811D01*
X0116979Y0104746D01*
X0116674Y0104674D01*
X0116370Y0104594D01*
X0116067Y0104506D01*
X0115768Y0104412D01*
X0115470Y0104310D01*
X0115176Y0104201D01*
X0114883Y0104085D01*
X0114594Y0103961D01*
X0114308Y0103831D01*
X0114026Y0103693D01*
X0113746Y0103549D01*
X0113471Y0103398D01*
X0113199Y0103240D01*
X0112931Y0103076D01*
X0112667Y0102905D01*
X0112407Y0102728D01*
X0112152Y0102544D01*
X0111901Y0102354D01*
X0111656Y0102159D01*
X0111414Y0101957D01*
X0111178Y0101749D01*
X0110947Y0101536D01*
X0110722Y0101317D01*
X0110502Y0101093D01*
X0110287Y0100863D01*
X0110078Y0100628D01*
X0109875Y0100388D01*
X0109678Y0100143D01*
X0109486Y0099894D01*
X0109301Y0099640D01*
X0109123Y0099381D01*
X0108950Y0099118D01*
X0108784Y0098851D01*
X0108625Y0098580D01*
X0108472Y0098305D01*
X0108326Y0098027D01*
X0108187Y0097745D01*
X0108055Y0097460D01*
X0107930Y0097171D01*
X0107812Y0096880D01*
X0107701Y0096586D01*
X0107598Y0096289D01*
X0107501Y0095990D01*
X0107412Y0095688D01*
X0107331Y0095385D01*
X0107257Y0095079D01*
X0107190Y0094772D01*
X0107131Y0094463D01*
X0107079Y0094153D01*
X0107035Y0093842D01*
X0106999Y0093530D01*
X0106970Y0093217D01*
X0106949Y0092903D01*
X0106936Y0092589D01*
X0106930Y0092275D01*
X0106932Y0091960D01*
X0106942Y0091646D01*
X0106959Y0091332D01*
X0106984Y0091019D01*
X0107017Y0090706D01*
X0107057Y0090394D01*
X0107105Y0090084D01*
X0107161Y0089774D01*
X0107224Y0089466D01*
X0107295Y0089160D01*
X0107373Y0088856D01*
X0107458Y0088553D01*
X0107551Y0088253D01*
X0107651Y0087955D01*
X0107759Y0087659D01*
X0107873Y0087367D01*
X0107995Y0087077D01*
X0108124Y0086790D01*
X0108259Y0086506D01*
X0108402Y0086226D01*
X0108552Y0085950D01*
X0108708Y0085677D01*
X0108871Y0085408D01*
X0109040Y0085143D01*
X0109216Y0084883D01*
X0109398Y0084626D01*
X0109586Y0084375D01*
X0109780Y0084127D01*
X0109981Y0083885D01*
X0110187Y0083648D01*
X0110399Y0083416D01*
X0110617Y0083189D01*
X0110840Y0082967D01*
X0111068Y0082751D01*
X0111302Y0082541D01*
X0111540Y0082337D01*
X0111784Y0082138D01*
X0112032Y0081945D01*
X0112089Y0082020D01*
X0111842Y0082212D01*
X0111600Y0082409D01*
X0111363Y0082612D01*
X0111132Y0082821D01*
X0110905Y0083035D01*
X0110683Y0083255D01*
X0110467Y0083480D01*
X0110257Y0083711D01*
X0110052Y0083946D01*
X0109853Y0084187D01*
X0109660Y0084432D01*
X0109474Y0084682D01*
X0109293Y0084936D01*
X0109118Y0085195D01*
X0108950Y0085458D01*
X0108789Y0085725D01*
X0108634Y0085996D01*
X0108485Y0086270D01*
X0108344Y0086548D01*
X0108209Y0086830D01*
X0108081Y0087114D01*
X0107960Y0087402D01*
X0107846Y0087693D01*
X0107740Y0087986D01*
X0107640Y0088282D01*
X0107548Y0088580D01*
X0107463Y0088880D01*
X0107386Y0089183D01*
X0107316Y0089487D01*
X0107253Y0089792D01*
X0107198Y0090099D01*
X0107150Y0090408D01*
X0107110Y0090717D01*
X0107078Y0091028D01*
X0107053Y0091339D01*
X0107036Y0091650D01*
X0107026Y0091962D01*
X0107024Y0092274D01*
X0107030Y0092586D01*
X0107043Y0092898D01*
X0107064Y0093209D01*
X0107092Y0093520D01*
X0107129Y0093830D01*
X0107172Y0094139D01*
X0107223Y0094447D01*
X0107282Y0094754D01*
X0107348Y0095058D01*
X0107422Y0095362D01*
X0107503Y0095663D01*
X0107591Y0095962D01*
X0107687Y0096259D01*
X0107790Y0096554D01*
X0107900Y0096846D01*
X0108017Y0097135D01*
X0108141Y0097422D01*
X0108272Y0097705D01*
X0108410Y0097985D01*
X0108555Y0098261D01*
X0108707Y0098534D01*
X0108865Y0098803D01*
X0109030Y0099068D01*
X0109201Y0099329D01*
X0109378Y0099585D01*
X0109562Y0099838D01*
X0109752Y0100085D01*
X0109947Y0100328D01*
X0110149Y0100567D01*
X0110357Y0100800D01*
X0110570Y0101028D01*
X0110788Y0101250D01*
X0111012Y0101468D01*
X0111241Y0101679D01*
X0111476Y0101885D01*
X0111715Y0102086D01*
X0111959Y0102280D01*
X0112208Y0102468D01*
X0112461Y0102651D01*
X0112719Y0102827D01*
X0112981Y0102996D01*
X0113247Y0103159D01*
X0113517Y0103316D01*
X0113791Y0103466D01*
X0114068Y0103609D01*
X0114348Y0103746D01*
X0114632Y0103875D01*
X0114919Y0103998D01*
X0115209Y0104113D01*
X0115502Y0104221D01*
X0115797Y0104323D01*
X0116095Y0104417D01*
X0116395Y0104503D01*
X0116696Y0104582D01*
X0117000Y0104654D01*
X0117305Y0104719D01*
X0117612Y0104776D01*
X0117920Y0104825D01*
X0118230Y0104867D01*
X0118540Y0104901D01*
X0118851Y0104928D01*
X0119162Y0104947D01*
X0119474Y0104958D01*
X0119786Y0104962D01*
X0120098Y0104958D01*
X0120410Y0104947D01*
X0120721Y0104928D01*
X0121032Y0104901D01*
X0121342Y0104867D01*
X0121652Y0104825D01*
X0121960Y0104776D01*
X0122267Y0104719D01*
X0122572Y0104654D01*
X0122876Y0104582D01*
X0123177Y0104503D01*
X0123477Y0104417D01*
X0123775Y0104323D01*
X0124070Y0104221D01*
X0124363Y0104113D01*
X0124653Y0103998D01*
X0124940Y0103875D01*
X0125224Y0103746D01*
X0125504Y0103609D01*
X0125781Y0103466D01*
X0126055Y0103316D01*
X0126325Y0103159D01*
X0126591Y0102996D01*
X0126853Y0102827D01*
X0127111Y0102651D01*
X0127364Y0102468D01*
X0127613Y0102280D01*
X0127857Y0102086D01*
X0128096Y0101885D01*
X0128331Y0101679D01*
X0128560Y0101468D01*
X0128784Y0101250D01*
X0129002Y0101028D01*
X0129215Y0100800D01*
X0129423Y0100567D01*
X0129625Y0100328D01*
X0129820Y0100085D01*
X0130010Y0099838D01*
X0130194Y0099585D01*
X0130371Y0099329D01*
X0130542Y0099068D01*
X0130707Y0098803D01*
X0130865Y0098534D01*
X0131017Y0098261D01*
X0131162Y0097985D01*
X0131300Y0097705D01*
X0131431Y0097422D01*
X0131555Y0097135D01*
X0131672Y0096846D01*
X0131782Y0096554D01*
X0131885Y0096259D01*
X0131981Y0095962D01*
X0132069Y0095663D01*
X0132150Y0095362D01*
X0132224Y0095058D01*
X0132290Y0094754D01*
X0132349Y0094447D01*
X0132400Y0094139D01*
X0132443Y0093830D01*
X0132480Y0093520D01*
X0132508Y0093209D01*
X0132529Y0092898D01*
X0132542Y0092586D01*
X0132548Y0092274D01*
X0132546Y0091962D01*
X0132536Y0091650D01*
X0132519Y0091339D01*
X0132494Y0091028D01*
X0132462Y0090717D01*
X0132422Y0090408D01*
X0132374Y0090099D01*
X0132319Y0089792D01*
X0132256Y0089487D01*
X0132186Y0089183D01*
X0132109Y0088880D01*
X0132024Y0088580D01*
X0131932Y0088282D01*
X0131832Y0087986D01*
X0131726Y0087693D01*
X0131612Y0087402D01*
X0131491Y0087114D01*
X0131363Y0086830D01*
X0131228Y0086548D01*
X0131087Y0086270D01*
X0130938Y0085996D01*
X0130783Y0085725D01*
X0130622Y0085458D01*
X0130454Y0085195D01*
X0130279Y0084936D01*
X0130098Y0084682D01*
X0129912Y0084432D01*
X0129719Y0084187D01*
X0129520Y0083946D01*
X0129315Y0083711D01*
X0129105Y0083480D01*
X0128889Y0083255D01*
X0128667Y0083035D01*
X0128440Y0082821D01*
X0128209Y0082612D01*
X0127972Y0082409D01*
X0127730Y0082212D01*
X0127483Y0082020D01*
X0127427Y0082096D01*
X0127672Y0082286D01*
X0127912Y0082481D01*
X0128147Y0082683D01*
X0128377Y0082890D01*
X0128602Y0083103D01*
X0128822Y0083321D01*
X0129036Y0083545D01*
X0129245Y0083774D01*
X0129448Y0084007D01*
X0129646Y0084246D01*
X0129837Y0084489D01*
X0130023Y0084738D01*
X0130202Y0084990D01*
X0130375Y0085247D01*
X0130542Y0085508D01*
X0130703Y0085773D01*
X0130856Y0086042D01*
X0131004Y0086314D01*
X0131144Y0086590D01*
X0131278Y0086870D01*
X0131405Y0087152D01*
X0131525Y0087438D01*
X0131638Y0087726D01*
X0131744Y0088017D01*
X0131842Y0088311D01*
X0131934Y0088607D01*
X0132018Y0088905D01*
X0132095Y0089205D01*
X0132164Y0089507D01*
X0132227Y0089810D01*
X0132281Y0090115D01*
X0132329Y0090421D01*
X0132368Y0090729D01*
X0132400Y0091037D01*
X0132425Y0091345D01*
X0132442Y0091655D01*
X0132452Y0091964D01*
X0132454Y0092274D01*
X0132448Y0092584D01*
X0132435Y0092893D01*
X0132414Y0093202D01*
X0132386Y0093511D01*
X0132350Y0093818D01*
X0132307Y0094125D01*
X0132256Y0094431D01*
X0132198Y0094735D01*
X0132132Y0095038D01*
X0132059Y0095339D01*
X0131979Y0095638D01*
X0131891Y0095935D01*
X0131796Y0096230D01*
X0131694Y0096522D01*
X0131585Y0096812D01*
X0131468Y0097099D01*
X0131345Y0097383D01*
X0131215Y0097664D01*
X0131078Y0097942D01*
X0130934Y0098216D01*
X0130784Y0098487D01*
X0130627Y0098754D01*
X0130463Y0099017D01*
X0130293Y0099276D01*
X0130117Y0099531D01*
X0129935Y0099782D01*
X0129746Y0100027D01*
X0129552Y0100269D01*
X0129352Y0100505D01*
X0129146Y0100736D01*
X0128934Y0100963D01*
X0128717Y0101184D01*
X0128495Y0101399D01*
X0128268Y0101610D01*
X0128035Y0101814D01*
X0127797Y0102013D01*
X0127555Y0102206D01*
X0127308Y0102393D01*
X0127057Y0102574D01*
X0126801Y0102748D01*
X0126541Y0102917D01*
X0126277Y0103079D01*
X0126009Y0103234D01*
X0125737Y0103383D01*
X0125462Y0103525D01*
X0125183Y0103661D01*
X0124902Y0103789D01*
X0124617Y0103911D01*
X0124329Y0104025D01*
X0124038Y0104133D01*
X0123745Y0104233D01*
X0123450Y0104327D01*
X0123152Y0104413D01*
X0122853Y0104491D01*
X0122551Y0104562D01*
X0122248Y0104626D01*
X0121944Y0104683D01*
X0121638Y0104732D01*
X0121331Y0104773D01*
X0121023Y0104807D01*
X0120714Y0104834D01*
X0120405Y0104853D01*
X0120096Y0104864D01*
X0119786Y0104868D01*
X0119476Y0104864D01*
X0119167Y0104853D01*
X0118858Y0104834D01*
X0118549Y0104807D01*
X0118241Y0104773D01*
X0117934Y0104732D01*
X0117628Y0104683D01*
X0117324Y0104626D01*
X0117021Y0104562D01*
X0116719Y0104491D01*
X0116420Y0104413D01*
X0116122Y0104327D01*
X0115827Y0104233D01*
X0115534Y0104133D01*
X0115243Y0104025D01*
X0114955Y0103911D01*
X0114670Y0103789D01*
X0114389Y0103661D01*
X0114110Y0103525D01*
X0113835Y0103383D01*
X0113563Y0103234D01*
X0113295Y0103079D01*
X0113031Y0102917D01*
X0112771Y0102748D01*
X0112515Y0102574D01*
X0112264Y0102393D01*
X0112017Y0102206D01*
X0111775Y0102013D01*
X0111537Y0101814D01*
X0111304Y0101610D01*
X0111077Y0101399D01*
X0110855Y0101184D01*
X0110638Y0100963D01*
X0110426Y0100736D01*
X0110220Y0100505D01*
X0110020Y0100269D01*
X0109826Y0100027D01*
X0109637Y0099782D01*
X0109455Y0099531D01*
X0109279Y0099276D01*
X0109109Y0099017D01*
X0108945Y0098754D01*
X0108788Y0098487D01*
X0108638Y0098216D01*
X0108494Y0097942D01*
X0108357Y0097664D01*
X0108227Y0097383D01*
X0108104Y0097099D01*
X0107987Y0096812D01*
X0107878Y0096522D01*
X0107776Y0096230D01*
X0107681Y0095935D01*
X0107593Y0095638D01*
X0107513Y0095339D01*
X0107440Y0095038D01*
X0107374Y0094735D01*
X0107316Y0094431D01*
X0107265Y0094125D01*
X0107222Y0093818D01*
X0107186Y0093511D01*
X0107158Y0093202D01*
X0107137Y0092893D01*
X0107124Y0092584D01*
X0107118Y0092274D01*
X0107120Y0091964D01*
X0107130Y0091655D01*
X0107147Y0091345D01*
X0107172Y0091037D01*
X0107204Y0090729D01*
X0107243Y0090421D01*
X0107291Y0090115D01*
X0107345Y0089810D01*
X0107408Y0089507D01*
X0107477Y0089205D01*
X0107554Y0088905D01*
X0107638Y0088607D01*
X0107730Y0088311D01*
X0107828Y0088017D01*
X0107934Y0087726D01*
X0108047Y0087438D01*
X0108167Y0087152D01*
X0108294Y0086870D01*
X0108428Y0086590D01*
X0108568Y0086314D01*
X0108716Y0086042D01*
X0108869Y0085773D01*
X0109030Y0085508D01*
X0109197Y0085247D01*
X0109370Y0084990D01*
X0109549Y0084738D01*
X0109735Y0084489D01*
X0109926Y0084246D01*
X0110124Y0084007D01*
X0110327Y0083774D01*
X0110536Y0083545D01*
X0110750Y0083321D01*
X0110970Y0083103D01*
X0111195Y0082890D01*
X0111425Y0082683D01*
X0111660Y0082481D01*
X0111900Y0082286D01*
X0112145Y0082096D01*
X0112202Y0082171D01*
X0111959Y0082359D01*
X0111720Y0082554D01*
X0111487Y0082754D01*
X0111259Y0082959D01*
X0111035Y0083171D01*
X0110817Y0083387D01*
X0110604Y0083609D01*
X0110397Y0083836D01*
X0110195Y0084068D01*
X0109999Y0084305D01*
X0109809Y0084547D01*
X0109625Y0084793D01*
X0109447Y0085044D01*
X0109275Y0085299D01*
X0109110Y0085558D01*
X0108950Y0085821D01*
X0108798Y0086088D01*
X0108651Y0086358D01*
X0108512Y0086632D01*
X0108379Y0086909D01*
X0108253Y0087190D01*
X0108134Y0087473D01*
X0108022Y0087760D01*
X0107917Y0088049D01*
X0107819Y0088340D01*
X0107728Y0088634D01*
X0107645Y0088930D01*
X0107568Y0089228D01*
X0107499Y0089527D01*
X0107438Y0089828D01*
X0107383Y0090131D01*
X0107337Y0090435D01*
X0107297Y0090740D01*
X0107265Y0091046D01*
X0107241Y0091352D01*
X0107224Y0091659D01*
X0107214Y0091966D01*
X0107212Y0092274D01*
X0107218Y0092581D01*
X0107231Y0092888D01*
X0107251Y0093195D01*
X0107280Y0093501D01*
X0107315Y0093807D01*
X0107358Y0094111D01*
X0107409Y0094414D01*
X0107466Y0094716D01*
X0107532Y0095017D01*
X0107604Y0095316D01*
X0107684Y0095612D01*
X0107771Y0095907D01*
X0107865Y0096200D01*
X0107967Y0096490D01*
X0108075Y0096778D01*
X0108190Y0097063D01*
X0108313Y0097345D01*
X0108442Y0097624D01*
X0108578Y0097900D01*
X0108721Y0098172D01*
X0108870Y0098441D01*
X0109026Y0098706D01*
X0109188Y0098967D01*
X0109357Y0099224D01*
X0109532Y0099477D01*
X0109713Y0099725D01*
X0109900Y0099969D01*
X0110093Y0100209D01*
X0110291Y0100443D01*
X0110496Y0100673D01*
X0110706Y0100898D01*
X0110921Y0101117D01*
X0111142Y0101331D01*
X0111367Y0101540D01*
X0111598Y0101743D01*
X0111834Y0101940D01*
X0112075Y0102132D01*
X0112320Y0102317D01*
X0112569Y0102497D01*
X0112823Y0102670D01*
X0113081Y0102837D01*
X0113343Y0102998D01*
X0113609Y0103152D01*
X0113879Y0103300D01*
X0114152Y0103441D01*
X0114429Y0103576D01*
X0114708Y0103703D01*
X0114991Y0103824D01*
X0115277Y0103938D01*
X0115565Y0104044D01*
X0115856Y0104144D01*
X0116149Y0104237D01*
X0116445Y0104322D01*
X0116742Y0104400D01*
X0117041Y0104471D01*
X0117342Y0104534D01*
X0117644Y0104590D01*
X0117948Y0104639D01*
X0118253Y0104680D01*
X0118558Y0104714D01*
X0118864Y0104740D01*
X0119171Y0104759D01*
X0119479Y0104770D01*
X0119786Y0104774D01*
X0120093Y0104770D01*
X0120401Y0104759D01*
X0120708Y0104740D01*
X0121014Y0104714D01*
X0121319Y0104680D01*
X0121624Y0104639D01*
X0121928Y0104590D01*
X0122230Y0104534D01*
X0122531Y0104471D01*
X0122830Y0104400D01*
X0123127Y0104322D01*
X0123423Y0104237D01*
X0123716Y0104144D01*
X0124007Y0104044D01*
X0124295Y0103938D01*
X0124581Y0103824D01*
X0124864Y0103703D01*
X0125143Y0103576D01*
X0125420Y0103441D01*
X0125693Y0103300D01*
X0125963Y0103152D01*
X0126229Y0102998D01*
X0126491Y0102837D01*
X0126749Y0102670D01*
X0127003Y0102497D01*
X0127252Y0102317D01*
X0127497Y0102132D01*
X0127738Y0101940D01*
X0127974Y0101743D01*
X0128205Y0101540D01*
X0128430Y0101331D01*
X0128651Y0101117D01*
X0128866Y0100898D01*
X0129076Y0100673D01*
X0129281Y0100443D01*
X0129479Y0100209D01*
X0129672Y0099969D01*
X0129859Y0099725D01*
X0130040Y0099477D01*
X0130215Y0099224D01*
X0130384Y0098967D01*
X0130546Y0098706D01*
X0130702Y0098441D01*
X0130851Y0098172D01*
X0130994Y0097900D01*
X0131130Y0097624D01*
X0131259Y0097345D01*
X0131382Y0097063D01*
X0131497Y0096778D01*
X0131605Y0096490D01*
X0131707Y0096200D01*
X0131801Y0095907D01*
X0131888Y0095612D01*
X0131968Y0095316D01*
X0132040Y0095017D01*
X0132106Y0094716D01*
X0132163Y0094414D01*
X0132214Y0094111D01*
X0132257Y0093807D01*
X0132292Y0093501D01*
X0132321Y0093195D01*
X0132341Y0092888D01*
X0132354Y0092581D01*
X0132360Y0092274D01*
X0132358Y0091966D01*
X0132348Y0091659D01*
X0132331Y0091352D01*
X0132307Y0091046D01*
X0132275Y0090740D01*
X0132235Y0090435D01*
X0132189Y0090131D01*
X0132134Y0089828D01*
X0132073Y0089527D01*
X0132004Y0089228D01*
X0131927Y0088930D01*
X0131844Y0088634D01*
X0131753Y0088340D01*
X0131655Y0088049D01*
X0131550Y0087760D01*
X0131438Y0087473D01*
X0131319Y0087190D01*
X0131193Y0086909D01*
X0131060Y0086632D01*
X0130921Y0086358D01*
X0130774Y0086088D01*
X0130622Y0085821D01*
X0130462Y0085558D01*
X0130297Y0085299D01*
X0130125Y0085044D01*
X0129947Y0084793D01*
X0129763Y0084547D01*
X0129573Y0084305D01*
X0129377Y0084068D01*
X0129175Y0083836D01*
X0128968Y0083609D01*
X0128755Y0083387D01*
X0128537Y0083171D01*
X0128313Y0082959D01*
X0128085Y0082754D01*
X0127852Y0082554D01*
X0127613Y0082359D01*
X0127370Y0082171D01*
X0127314Y0082246D01*
X0127555Y0082433D01*
X0127792Y0082626D01*
X0128023Y0082825D01*
X0128250Y0083029D01*
X0128472Y0083238D01*
X0128688Y0083454D01*
X0128899Y0083674D01*
X0129105Y0083899D01*
X0129305Y0084129D01*
X0129500Y0084365D01*
X0129688Y0084604D01*
X0129871Y0084849D01*
X0130048Y0085098D01*
X0130218Y0085351D01*
X0130383Y0085608D01*
X0130541Y0085869D01*
X0130692Y0086134D01*
X0130837Y0086402D01*
X0130976Y0086674D01*
X0131108Y0086949D01*
X0131233Y0087228D01*
X0131351Y0087509D01*
X0131462Y0087793D01*
X0131566Y0088080D01*
X0131664Y0088369D01*
X0131754Y0088661D01*
X0131837Y0088954D01*
X0131912Y0089250D01*
X0131981Y0089547D01*
X0132042Y0089846D01*
X0132096Y0090147D01*
X0132142Y0090448D01*
X0132182Y0090751D01*
X0132213Y0091054D01*
X0132238Y0091359D01*
X0132254Y0091663D01*
X0132264Y0091968D01*
X0132266Y0092273D01*
X0132260Y0092578D01*
X0132247Y0092883D01*
X0132227Y0093188D01*
X0132199Y0093492D01*
X0132164Y0093795D01*
X0132121Y0094097D01*
X0132071Y0094398D01*
X0132014Y0094698D01*
X0131949Y0094996D01*
X0131877Y0095292D01*
X0131798Y0095587D01*
X0131711Y0095880D01*
X0131618Y0096170D01*
X0131517Y0096458D01*
X0131409Y0096744D01*
X0131295Y0097027D01*
X0131173Y0097307D01*
X0131045Y0097584D01*
X0130910Y0097857D01*
X0130769Y0098127D01*
X0130620Y0098394D01*
X0130466Y0098657D01*
X0130305Y0098916D01*
X0130137Y0099172D01*
X0129964Y0099423D01*
X0129784Y0099669D01*
X0129598Y0099911D01*
X0129407Y0100149D01*
X0129210Y0100382D01*
X0129007Y0100610D01*
X0128798Y0100833D01*
X0128585Y0101051D01*
X0128366Y0101263D01*
X0128142Y0101470D01*
X0127912Y0101672D01*
X0127678Y0101868D01*
X0127440Y0102058D01*
X0127196Y0102242D01*
X0126949Y0102420D01*
X0126697Y0102592D01*
X0126440Y0102758D01*
X0126180Y0102917D01*
X0125916Y0103071D01*
X0125649Y0103217D01*
X0125378Y0103357D01*
X0125103Y0103491D01*
X0124826Y0103617D01*
X0124545Y0103737D01*
X0124261Y0103850D01*
X0123975Y0103956D01*
X0123687Y0104055D01*
X0123396Y0104147D01*
X0123102Y0104231D01*
X0122807Y0104309D01*
X0122510Y0104379D01*
X0122212Y0104442D01*
X0121912Y0104498D01*
X0121610Y0104546D01*
X0121308Y0104587D01*
X0121005Y0104620D01*
X0120701Y0104646D01*
X0120396Y0104665D01*
X0120091Y0104676D01*
X0119786Y0104680D01*
X0119481Y0104676D01*
X0119176Y0104665D01*
X0118871Y0104646D01*
X0118567Y0104620D01*
X0118264Y0104587D01*
X0117962Y0104546D01*
X0117660Y0104498D01*
X0117360Y0104442D01*
X0117062Y0104379D01*
X0116765Y0104309D01*
X0116470Y0104231D01*
X0116176Y0104147D01*
X0115885Y0104055D01*
X0115597Y0103956D01*
X0115311Y0103850D01*
X0115027Y0103737D01*
X0114746Y0103617D01*
X0114469Y0103491D01*
X0114194Y0103357D01*
X0113923Y0103217D01*
X0113656Y0103071D01*
X0113392Y0102917D01*
X0113132Y0102758D01*
X0112875Y0102592D01*
X0112623Y0102420D01*
X0112376Y0102242D01*
X0112132Y0102058D01*
X0111894Y0101868D01*
X0111660Y0101672D01*
X0111430Y0101470D01*
X0111206Y0101263D01*
X0110987Y0101051D01*
X0110774Y0100833D01*
X0110565Y0100610D01*
X0110362Y0100382D01*
X0110165Y0100149D01*
X0109974Y0099911D01*
X0109788Y0099669D01*
X0109608Y0099423D01*
X0109435Y0099172D01*
X0109267Y0098916D01*
X0109106Y0098657D01*
X0108952Y0098394D01*
X0108803Y0098127D01*
X0108662Y0097857D01*
X0108527Y0097584D01*
X0108399Y0097307D01*
X0108277Y0097027D01*
X0108163Y0096744D01*
X0108055Y0096458D01*
X0107954Y0096170D01*
X0107861Y0095880D01*
X0107774Y0095587D01*
X0107695Y0095292D01*
X0107623Y0094996D01*
X0107558Y0094698D01*
X0107501Y0094398D01*
X0107451Y0094097D01*
X0107408Y0093795D01*
X0107373Y0093492D01*
X0107345Y0093188D01*
X0107325Y0092883D01*
X0107312Y0092578D01*
X0107306Y0092273D01*
X0107308Y0091968D01*
X0107318Y0091663D01*
X0107334Y0091359D01*
X0107359Y0091054D01*
X0107390Y0090751D01*
X0107430Y0090448D01*
X0107476Y0090147D01*
X0107530Y0089846D01*
X0107591Y0089547D01*
X0107660Y0089250D01*
X0107735Y0088954D01*
X0107818Y0088661D01*
X0107908Y0088369D01*
X0108006Y0088080D01*
X0108110Y0087793D01*
X0108221Y0087509D01*
X0108339Y0087228D01*
X0108464Y0086949D01*
X0108596Y0086674D01*
X0108735Y0086402D01*
X0108880Y0086134D01*
X0109031Y0085869D01*
X0109189Y0085608D01*
X0109354Y0085351D01*
X0109524Y0085098D01*
X0109701Y0084849D01*
X0109884Y0084604D01*
X0110072Y0084365D01*
X0110267Y0084129D01*
X0110467Y0083899D01*
X0110673Y0083674D01*
X0110884Y0083454D01*
X0111100Y0083238D01*
X0111322Y0083029D01*
X0111549Y0082825D01*
X0111780Y0082626D01*
X0112017Y0082433D01*
X0112258Y0082246D01*
X0112314Y0082321D01*
X0112075Y0082507D01*
X0111840Y0082698D01*
X0111611Y0082895D01*
X0111385Y0083098D01*
X0111165Y0083306D01*
X0110951Y0083520D01*
X0110741Y0083738D01*
X0110537Y0083962D01*
X0110338Y0084191D01*
X0110145Y0084424D01*
X0109958Y0084662D01*
X0109777Y0084904D01*
X0109601Y0085151D01*
X0109432Y0085402D01*
X0109269Y0085658D01*
X0109112Y0085917D01*
X0108962Y0086180D01*
X0108818Y0086446D01*
X0108680Y0086716D01*
X0108549Y0086989D01*
X0108425Y0087265D01*
X0108308Y0087545D01*
X0108198Y0087827D01*
X0108094Y0088111D01*
X0107998Y0088398D01*
X0107908Y0088688D01*
X0107826Y0088979D01*
X0107751Y0089272D01*
X0107683Y0089568D01*
X0107622Y0089864D01*
X0107569Y0090162D01*
X0107523Y0090462D01*
X0107484Y0090762D01*
X0107452Y0091063D01*
X0107428Y0091365D01*
X0107411Y0091668D01*
X0107402Y0091970D01*
X0107400Y0092273D01*
X0107406Y0092576D01*
X0107419Y0092878D01*
X0107439Y0093181D01*
X0107467Y0093482D01*
X0107502Y0093783D01*
X0107544Y0094083D01*
X0107594Y0094382D01*
X0107651Y0094679D01*
X0107715Y0094975D01*
X0107786Y0095269D01*
X0107865Y0095562D01*
X0107951Y0095852D01*
X0108044Y0096141D01*
X0108143Y0096426D01*
X0108250Y0096710D01*
X0108364Y0096991D01*
X0108484Y0097268D01*
X0108612Y0097543D01*
X0108746Y0097815D01*
X0108886Y0098083D01*
X0109033Y0098348D01*
X0109187Y0098609D01*
X0109347Y0098866D01*
X0109513Y0099119D01*
X0109685Y0099368D01*
X0109863Y0099613D01*
X0110048Y0099854D01*
X0110238Y0100089D01*
X0110433Y0100320D01*
X0110635Y0100547D01*
X0110842Y0100768D01*
X0111054Y0100984D01*
X0111271Y0101195D01*
X0111493Y0101400D01*
X0111721Y0101600D01*
X0111953Y0101795D01*
X0112190Y0101983D01*
X0112432Y0102166D01*
X0112677Y0102343D01*
X0112928Y0102514D01*
X0113182Y0102678D01*
X0113440Y0102837D01*
X0113702Y0102989D01*
X0113967Y0103134D01*
X0114237Y0103273D01*
X0114509Y0103406D01*
X0114784Y0103531D01*
X0115063Y0103650D01*
X0115344Y0103762D01*
X0115628Y0103867D01*
X0115915Y0103966D01*
X0116204Y0104057D01*
X0116495Y0104141D01*
X0116788Y0104218D01*
X0117082Y0104287D01*
X0117379Y0104350D01*
X0117676Y0104405D01*
X0117975Y0104453D01*
X0118275Y0104494D01*
X0118577Y0104527D01*
X0118878Y0104553D01*
X0119181Y0104571D01*
X0119483Y0104582D01*
X0119786Y0104586D01*
X0120089Y0104582D01*
X0120391Y0104571D01*
X0120694Y0104553D01*
X0120995Y0104527D01*
X0121297Y0104494D01*
X0121597Y0104453D01*
X0121896Y0104405D01*
X0122193Y0104350D01*
X0122490Y0104287D01*
X0122784Y0104218D01*
X0123077Y0104141D01*
X0123368Y0104057D01*
X0123657Y0103966D01*
X0123944Y0103867D01*
X0124228Y0103762D01*
X0124509Y0103650D01*
X0124788Y0103531D01*
X0125063Y0103406D01*
X0125335Y0103273D01*
X0125605Y0103134D01*
X0125870Y0102989D01*
X0126132Y0102837D01*
X0126390Y0102678D01*
X0126644Y0102514D01*
X0126895Y0102343D01*
X0127140Y0102166D01*
X0127382Y0101983D01*
X0127619Y0101795D01*
X0127851Y0101600D01*
X0128079Y0101400D01*
X0128301Y0101195D01*
X0128518Y0100984D01*
X0128730Y0100768D01*
X0128937Y0100547D01*
X0129139Y0100320D01*
X0129334Y0100089D01*
X0129524Y0099854D01*
X0129709Y0099613D01*
X0129887Y0099368D01*
X0130059Y0099119D01*
X0130225Y0098866D01*
X0130385Y0098609D01*
X0130539Y0098348D01*
X0130686Y0098083D01*
X0130826Y0097815D01*
X0130960Y0097543D01*
X0131088Y0097268D01*
X0131208Y0096991D01*
X0131322Y0096710D01*
X0131429Y0096426D01*
X0131528Y0096141D01*
X0131621Y0095852D01*
X0131707Y0095562D01*
X0131786Y0095269D01*
X0131857Y0094975D01*
X0131921Y0094679D01*
X0131978Y0094382D01*
X0132028Y0094083D01*
X0132070Y0093783D01*
X0132105Y0093482D01*
X0132133Y0093181D01*
X0132153Y0092878D01*
X0132166Y0092576D01*
X0132172Y0092273D01*
X0132170Y0091970D01*
X0132161Y0091668D01*
X0132144Y0091365D01*
X0132120Y0091063D01*
X0132088Y0090762D01*
X0132049Y0090462D01*
X0132003Y0090162D01*
X0131950Y0089864D01*
X0131889Y0089568D01*
X0131821Y0089272D01*
X0131746Y0088979D01*
X0131664Y0088688D01*
X0131574Y0088398D01*
X0131478Y0088111D01*
X0131374Y0087827D01*
X0131264Y0087545D01*
X0131147Y0087265D01*
X0131023Y0086989D01*
X0130892Y0086716D01*
X0130754Y0086446D01*
X0130610Y0086180D01*
X0130460Y0085917D01*
X0130303Y0085658D01*
X0130140Y0085402D01*
X0129971Y0085151D01*
X0129795Y0084904D01*
X0129614Y0084662D01*
X0129427Y0084424D01*
X0129234Y0084191D01*
X0129035Y0083962D01*
X0128831Y0083738D01*
X0128621Y0083520D01*
X0128407Y0083306D01*
X0128187Y0083098D01*
X0127961Y0082895D01*
X0127732Y0082698D01*
X0127497Y0082507D01*
X0127258Y0082321D01*
X0127201Y0082396D01*
X0127439Y0082581D01*
X0127672Y0082771D01*
X0127900Y0082966D01*
X0128123Y0083167D01*
X0128341Y0083374D01*
X0128555Y0083586D01*
X0128763Y0083803D01*
X0128965Y0084025D01*
X0129162Y0084252D01*
X0129354Y0084483D01*
X0129540Y0084719D01*
X0129720Y0084960D01*
X0129894Y0085205D01*
X0130062Y0085454D01*
X0130224Y0085708D01*
X0130379Y0085965D01*
X0130528Y0086226D01*
X0130671Y0086490D01*
X0130808Y0086758D01*
X0130937Y0087029D01*
X0131060Y0087303D01*
X0131177Y0087580D01*
X0131286Y0087860D01*
X0131389Y0088143D01*
X0131485Y0088427D01*
X0131574Y0088715D01*
X0131655Y0089004D01*
X0131730Y0089295D01*
X0131797Y0089588D01*
X0131858Y0089882D01*
X0131911Y0090178D01*
X0131956Y0090475D01*
X0131995Y0090773D01*
X0132026Y0091072D01*
X0132050Y0091372D01*
X0132067Y0091672D01*
X0132076Y0091972D01*
X0132078Y0092273D01*
X0132072Y0092573D01*
X0132060Y0092874D01*
X0132039Y0093173D01*
X0132012Y0093473D01*
X0131977Y0093771D01*
X0131935Y0094069D01*
X0131886Y0094365D01*
X0131829Y0094660D01*
X0131765Y0094954D01*
X0131695Y0095246D01*
X0131617Y0095536D01*
X0131531Y0095825D01*
X0131439Y0096111D01*
X0131340Y0096395D01*
X0131234Y0096676D01*
X0131121Y0096954D01*
X0131002Y0097230D01*
X0130875Y0097503D01*
X0130742Y0097772D01*
X0130603Y0098038D01*
X0130457Y0098301D01*
X0130305Y0098560D01*
X0130146Y0098816D01*
X0129981Y0099067D01*
X0129810Y0099314D01*
X0129633Y0099557D01*
X0129450Y0099796D01*
X0129262Y0100030D01*
X0129068Y0100259D01*
X0128868Y0100483D01*
X0128663Y0100703D01*
X0128452Y0100917D01*
X0128236Y0101127D01*
X0128015Y0101331D01*
X0127790Y0101529D01*
X0127559Y0101722D01*
X0127324Y0101909D01*
X0127085Y0102091D01*
X0126841Y0102266D01*
X0126592Y0102436D01*
X0126340Y0102599D01*
X0126084Y0102756D01*
X0125824Y0102907D01*
X0125560Y0103051D01*
X0125293Y0103189D01*
X0125023Y0103321D01*
X0124750Y0103445D01*
X0124473Y0103563D01*
X0124194Y0103674D01*
X0123912Y0103779D01*
X0123628Y0103876D01*
X0123341Y0103967D01*
X0123052Y0104050D01*
X0122762Y0104126D01*
X0122469Y0104196D01*
X0122175Y0104258D01*
X0121880Y0104312D01*
X0121583Y0104360D01*
X0121285Y0104400D01*
X0120986Y0104433D01*
X0120687Y0104459D01*
X0120387Y0104477D01*
X0120087Y0104488D01*
X0119786Y0104492D01*
X0119485Y0104488D01*
X0119185Y0104477D01*
X0118885Y0104459D01*
X0118586Y0104433D01*
X0118287Y0104400D01*
X0117989Y0104360D01*
X0117692Y0104312D01*
X0117397Y0104258D01*
X0117103Y0104196D01*
X0116810Y0104126D01*
X0116520Y0104050D01*
X0116231Y0103967D01*
X0115944Y0103876D01*
X0115660Y0103779D01*
X0115378Y0103674D01*
X0115099Y0103563D01*
X0114822Y0103445D01*
X0114549Y0103321D01*
X0114279Y0103189D01*
X0114012Y0103051D01*
X0113748Y0102907D01*
X0113488Y0102756D01*
X0113232Y0102599D01*
X0112980Y0102436D01*
X0112731Y0102266D01*
X0112487Y0102091D01*
X0112248Y0101909D01*
X0112013Y0101722D01*
X0111782Y0101529D01*
X0111557Y0101331D01*
X0111336Y0101127D01*
X0111120Y0100917D01*
X0110909Y0100703D01*
X0110704Y0100483D01*
X0110504Y0100259D01*
X0110310Y0100030D01*
X0110122Y0099796D01*
X0109939Y0099557D01*
X0109762Y0099314D01*
X0109591Y0099067D01*
X0109426Y0098816D01*
X0109267Y0098560D01*
X0109115Y0098301D01*
X0108969Y0098038D01*
X0108830Y0097772D01*
X0108697Y0097503D01*
X0108570Y0097230D01*
X0108451Y0096954D01*
X0108338Y0096676D01*
X0108232Y0096395D01*
X0108133Y0096111D01*
X0108041Y0095825D01*
X0107955Y0095536D01*
X0107877Y0095246D01*
X0107807Y0094954D01*
X0107743Y0094660D01*
X0107686Y0094365D01*
X0107637Y0094069D01*
X0107595Y0093771D01*
X0107560Y0093473D01*
X0107533Y0093173D01*
X0107512Y0092874D01*
X0107500Y0092573D01*
X0107494Y0092273D01*
X0107496Y0091972D01*
X0107505Y0091672D01*
X0107522Y0091372D01*
X0107546Y0091072D01*
X0107577Y0090773D01*
X0107616Y0090475D01*
X0107661Y0090178D01*
X0107714Y0089882D01*
X0107775Y0089588D01*
X0107842Y0089295D01*
X0107917Y0089004D01*
X0107998Y0088715D01*
X0108087Y0088427D01*
X0108183Y0088143D01*
X0108286Y0087860D01*
X0108395Y0087580D01*
X0108512Y0087303D01*
X0108635Y0087029D01*
X0108764Y0086758D01*
X0108901Y0086490D01*
X0109044Y0086226D01*
X0109193Y0085965D01*
X0109348Y0085708D01*
X0109510Y0085454D01*
X0109678Y0085205D01*
X0109852Y0084960D01*
X0110032Y0084719D01*
X0110218Y0084483D01*
X0110410Y0084252D01*
X0110607Y0084025D01*
X0110809Y0083803D01*
X0111017Y0083586D01*
X0111231Y0083374D01*
X0111449Y0083167D01*
X0111672Y0082966D01*
X0111900Y0082771D01*
X0112133Y0082581D01*
X0112371Y0082396D01*
X0112427Y0082472D01*
X0112192Y0082655D01*
X0111960Y0082843D01*
X0111734Y0083037D01*
X0111512Y0083237D01*
X0111296Y0083442D01*
X0111084Y0083652D01*
X0110878Y0083867D01*
X0110677Y0084087D01*
X0110481Y0084313D01*
X0110291Y0084542D01*
X0110107Y0084777D01*
X0109928Y0085016D01*
X0109755Y0085259D01*
X0109589Y0085506D01*
X0109428Y0085758D01*
X0109274Y0086013D01*
X0109126Y0086272D01*
X0108984Y0086534D01*
X0108849Y0086800D01*
X0108720Y0087069D01*
X0108598Y0087341D01*
X0108482Y0087616D01*
X0108373Y0087894D01*
X0108272Y0088174D01*
X0108177Y0088457D01*
X0108089Y0088742D01*
X0108008Y0089029D01*
X0107933Y0089317D01*
X0107867Y0089608D01*
X0107807Y0089900D01*
X0107754Y0090194D01*
X0107709Y0090489D01*
X0107670Y0090784D01*
X0107639Y0091081D01*
X0107616Y0091378D01*
X0107599Y0091676D01*
X0107590Y0091974D01*
X0107588Y0092272D01*
X0107594Y0092571D01*
X0107606Y0092869D01*
X0107626Y0093166D01*
X0107654Y0093463D01*
X0107688Y0093759D01*
X0107730Y0094055D01*
X0107779Y0094349D01*
X0107835Y0094642D01*
X0107898Y0094933D01*
X0107969Y0095223D01*
X0108046Y0095511D01*
X0108130Y0095797D01*
X0108222Y0096081D01*
X0108320Y0096363D01*
X0108425Y0096642D01*
X0108537Y0096918D01*
X0108656Y0097192D01*
X0108782Y0097462D01*
X0108913Y0097730D01*
X0109052Y0097994D01*
X0109197Y0098255D01*
X0109348Y0098512D01*
X0109505Y0098765D01*
X0109669Y0099014D01*
X0109839Y0099260D01*
X0110014Y0099501D01*
X0110196Y0099738D01*
X0110383Y0099970D01*
X0110575Y0100197D01*
X0110774Y0100420D01*
X0110977Y0100638D01*
X0111186Y0100851D01*
X0111400Y0101059D01*
X0111620Y0101261D01*
X0111843Y0101458D01*
X0112072Y0101649D01*
X0112306Y0101835D01*
X0112543Y0102015D01*
X0112785Y0102189D01*
X0113032Y0102357D01*
X0113282Y0102519D01*
X0113536Y0102675D01*
X0113794Y0102825D01*
X0114056Y0102968D01*
X0114321Y0103105D01*
X0114589Y0103236D01*
X0114860Y0103359D01*
X0115135Y0103476D01*
X0115412Y0103587D01*
X0115692Y0103690D01*
X0115974Y0103787D01*
X0116258Y0103877D01*
X0116545Y0103959D01*
X0116833Y0104035D01*
X0117123Y0104104D01*
X0117415Y0104165D01*
X0117708Y0104220D01*
X0118003Y0104267D01*
X0118298Y0104307D01*
X0118595Y0104340D01*
X0118892Y0104365D01*
X0119190Y0104383D01*
X0119488Y0104394D01*
X0119786Y0104398D01*
X0120084Y0104394D01*
X0120382Y0104383D01*
X0120680Y0104365D01*
X0120977Y0104340D01*
X0121274Y0104307D01*
X0121569Y0104267D01*
X0121864Y0104220D01*
X0122157Y0104165D01*
X0122449Y0104104D01*
X0122739Y0104035D01*
X0123027Y0103959D01*
X0123314Y0103877D01*
X0123598Y0103787D01*
X0123880Y0103690D01*
X0124160Y0103587D01*
X0124437Y0103476D01*
X0124712Y0103359D01*
X0124983Y0103236D01*
X0125251Y0103105D01*
X0125516Y0102968D01*
X0125778Y0102825D01*
X0126036Y0102675D01*
X0126290Y0102519D01*
X0126540Y0102357D01*
X0126787Y0102189D01*
X0127029Y0102015D01*
X0127266Y0101835D01*
X0127500Y0101649D01*
X0127729Y0101458D01*
X0127952Y0101261D01*
X0128172Y0101059D01*
X0128386Y0100851D01*
X0128595Y0100638D01*
X0128798Y0100420D01*
X0128997Y0100197D01*
X0129189Y0099970D01*
X0129376Y0099738D01*
X0129558Y0099501D01*
X0129733Y0099260D01*
X0129903Y0099014D01*
X0130067Y0098765D01*
X0130224Y0098512D01*
X0130375Y0098255D01*
X0130520Y0097994D01*
X0130659Y0097730D01*
X0130790Y0097462D01*
X0130916Y0097192D01*
X0131035Y0096918D01*
X0131147Y0096642D01*
X0131252Y0096363D01*
X0131350Y0096081D01*
X0131442Y0095797D01*
X0131526Y0095511D01*
X0131603Y0095223D01*
X0131674Y0094933D01*
X0131737Y0094642D01*
X0131793Y0094349D01*
X0131842Y0094055D01*
X0131884Y0093759D01*
X0131918Y0093463D01*
X0131946Y0093166D01*
X0131966Y0092869D01*
X0131978Y0092571D01*
X0131984Y0092272D01*
X0131982Y0091974D01*
X0131973Y0091676D01*
X0131956Y0091378D01*
X0131933Y0091081D01*
X0131902Y0090784D01*
X0131863Y0090489D01*
X0131818Y0090194D01*
X0131765Y0089900D01*
X0131705Y0089608D01*
X0131639Y0089317D01*
X0131564Y0089029D01*
X0131483Y0088742D01*
X0131395Y0088457D01*
X0131300Y0088174D01*
X0131199Y0087894D01*
X0131090Y0087616D01*
X0130974Y0087341D01*
X0130852Y0087069D01*
X0130723Y0086800D01*
X0130588Y0086534D01*
X0130446Y0086272D01*
X0130298Y0086013D01*
X0130144Y0085758D01*
X0129983Y0085506D01*
X0129817Y0085259D01*
X0129644Y0085016D01*
X0129465Y0084777D01*
X0129281Y0084542D01*
X0129091Y0084313D01*
X0128895Y0084087D01*
X0128694Y0083867D01*
X0128488Y0083652D01*
X0128276Y0083442D01*
X0128060Y0083237D01*
X0127838Y0083037D01*
X0127612Y0082843D01*
X0127380Y0082655D01*
X0127145Y0082472D01*
X0127088Y0082547D01*
X0127322Y0082728D01*
X0127551Y0082915D01*
X0127776Y0083108D01*
X0127996Y0083306D01*
X0128211Y0083509D01*
X0128421Y0083718D01*
X0128626Y0083932D01*
X0128825Y0084150D01*
X0129019Y0084374D01*
X0129208Y0084602D01*
X0129391Y0084834D01*
X0129568Y0085071D01*
X0129739Y0085313D01*
X0129905Y0085558D01*
X0130064Y0085807D01*
X0130217Y0086061D01*
X0130364Y0086318D01*
X0130505Y0086578D01*
X0130639Y0086842D01*
X0130767Y0087109D01*
X0130888Y0087379D01*
X0131003Y0087651D01*
X0131111Y0087927D01*
X0131212Y0088205D01*
X0131306Y0088486D01*
X0131393Y0088768D01*
X0131474Y0089053D01*
X0131547Y0089340D01*
X0131614Y0089628D01*
X0131673Y0089918D01*
X0131725Y0090210D01*
X0131770Y0090502D01*
X0131808Y0090796D01*
X0131839Y0091090D01*
X0131863Y0091385D01*
X0131879Y0091680D01*
X0131888Y0091976D01*
X0131890Y0092272D01*
X0131884Y0092568D01*
X0131872Y0092864D01*
X0131852Y0093159D01*
X0131825Y0093454D01*
X0131791Y0093748D01*
X0131749Y0094041D01*
X0131701Y0094333D01*
X0131645Y0094623D01*
X0131582Y0094912D01*
X0131512Y0095200D01*
X0131435Y0095486D01*
X0131352Y0095770D01*
X0131261Y0096051D01*
X0131163Y0096331D01*
X0131059Y0096608D01*
X0130948Y0096882D01*
X0130830Y0097153D01*
X0130706Y0097422D01*
X0130575Y0097687D01*
X0130437Y0097949D01*
X0130294Y0098208D01*
X0130144Y0098463D01*
X0129987Y0098715D01*
X0129825Y0098962D01*
X0129657Y0099205D01*
X0129482Y0099445D01*
X0129302Y0099680D01*
X0129117Y0099910D01*
X0128925Y0100136D01*
X0128729Y0100357D01*
X0128527Y0100573D01*
X0128319Y0100784D01*
X0128107Y0100990D01*
X0127889Y0101191D01*
X0127667Y0101387D01*
X0127440Y0101577D01*
X0127209Y0101761D01*
X0126973Y0101939D01*
X0126733Y0102112D01*
X0126488Y0102279D01*
X0126240Y0102440D01*
X0125987Y0102595D01*
X0125731Y0102743D01*
X0125472Y0102885D01*
X0125209Y0103021D01*
X0124943Y0103151D01*
X0124674Y0103273D01*
X0124401Y0103390D01*
X0124126Y0103499D01*
X0123849Y0103602D01*
X0123569Y0103698D01*
X0123287Y0103787D01*
X0123002Y0103869D01*
X0122716Y0103944D01*
X0122428Y0104012D01*
X0122139Y0104073D01*
X0121848Y0104127D01*
X0121555Y0104174D01*
X0121262Y0104214D01*
X0120968Y0104246D01*
X0120673Y0104271D01*
X0120378Y0104290D01*
X0120082Y0104300D01*
X0119786Y0104304D01*
X0119490Y0104300D01*
X0119194Y0104290D01*
X0118899Y0104271D01*
X0118604Y0104246D01*
X0118310Y0104214D01*
X0118017Y0104174D01*
X0117724Y0104127D01*
X0117433Y0104073D01*
X0117144Y0104012D01*
X0116856Y0103944D01*
X0116570Y0103869D01*
X0116285Y0103787D01*
X0116003Y0103698D01*
X0115723Y0103602D01*
X0115446Y0103499D01*
X0115171Y0103390D01*
X0114898Y0103273D01*
X0114629Y0103151D01*
X0114363Y0103021D01*
X0114100Y0102885D01*
X0113841Y0102743D01*
X0113585Y0102595D01*
X0113332Y0102440D01*
X0113084Y0102279D01*
X0112839Y0102112D01*
X0112599Y0101939D01*
X0112363Y0101761D01*
X0112132Y0101577D01*
X0111905Y0101387D01*
X0111683Y0101191D01*
X0111465Y0100990D01*
X0111253Y0100784D01*
X0111045Y0100573D01*
X0110843Y0100357D01*
X0110647Y0100136D01*
X0110455Y0099910D01*
X0110270Y0099680D01*
X0110090Y0099445D01*
X0109915Y0099205D01*
X0109747Y0098962D01*
X0109585Y0098715D01*
X0109428Y0098463D01*
X0109278Y0098208D01*
X0109135Y0097949D01*
X0108997Y0097687D01*
X0108866Y0097422D01*
X0108742Y0097153D01*
X0108624Y0096882D01*
X0108513Y0096608D01*
X0108409Y0096331D01*
X0108311Y0096051D01*
X0108220Y0095770D01*
X0108137Y0095486D01*
X0108060Y0095200D01*
X0107990Y0094912D01*
X0107927Y0094623D01*
X0107871Y0094333D01*
X0107823Y0094041D01*
X0107781Y0093748D01*
X0107747Y0093454D01*
X0107720Y0093159D01*
X0107700Y0092864D01*
X0107688Y0092568D01*
X0107682Y0092272D01*
X0107684Y0091976D01*
X0107693Y0091680D01*
X0107709Y0091385D01*
X0107733Y0091090D01*
X0107764Y0090796D01*
X0107802Y0090502D01*
X0107847Y0090210D01*
X0107899Y0089918D01*
X0107958Y0089628D01*
X0108025Y0089340D01*
X0108098Y0089053D01*
X0108179Y0088768D01*
X0108266Y0088486D01*
X0108360Y0088205D01*
X0108461Y0087927D01*
X0108569Y0087651D01*
X0108684Y0087379D01*
X0108805Y0087109D01*
X0108933Y0086842D01*
X0109067Y0086578D01*
X0109208Y0086318D01*
X0109355Y0086061D01*
X0109508Y0085807D01*
X0109667Y0085558D01*
X0109833Y0085313D01*
X0110004Y0085071D01*
X0110181Y0084834D01*
X0110364Y0084602D01*
X0110553Y0084374D01*
X0110747Y0084150D01*
X0110946Y0083932D01*
X0111151Y0083718D01*
X0111361Y0083509D01*
X0111576Y0083306D01*
X0111796Y0083108D01*
X0112021Y0082915D01*
X0112250Y0082728D01*
X0112484Y0082547D01*
D15*
X0074786Y0062950D03*
X0074786Y0041450D03*
D16*
X0101308Y0048843D02*
X0101732Y0048509D01*
X0101731Y0048509D02*
X0101579Y0048310D01*
X0101432Y0048108D01*
X0101290Y0047902D01*
X0101153Y0047692D01*
X0101022Y0047479D01*
X0100895Y0047263D01*
X0100774Y0047044D01*
X0100658Y0046822D01*
X0100548Y0046598D01*
X0100443Y0046370D01*
X0100343Y0046141D01*
X0100250Y0045908D01*
X0100162Y0045674D01*
X0100080Y0045438D01*
X0100004Y0045199D01*
X0099933Y0044959D01*
X0099868Y0044717D01*
X0099810Y0044474D01*
X0099757Y0044229D01*
X0099711Y0043983D01*
X0099670Y0043736D01*
X0099635Y0043488D01*
X0099607Y0043239D01*
X0099585Y0042990D01*
X0099568Y0042740D01*
X0099558Y0042490D01*
X0099554Y0042240D01*
X0099556Y0041990D01*
X0099564Y0041739D01*
X0099579Y0041489D01*
X0099599Y0041240D01*
X0099626Y0040991D01*
X0099658Y0040743D01*
X0099697Y0040495D01*
X0099742Y0040249D01*
X0099792Y0040004D01*
X0099849Y0039760D01*
X0099912Y0039518D01*
X0099980Y0039277D01*
X0100055Y0039038D01*
X0100135Y0038801D01*
X0100221Y0038566D01*
X0100313Y0038333D01*
X0100410Y0038102D01*
X0100514Y0037874D01*
X0100622Y0037649D01*
X0100736Y0037426D01*
X0100856Y0037206D01*
X0100981Y0036989D01*
X0101111Y0036775D01*
X0101246Y0036565D01*
X0101387Y0036357D01*
X0101532Y0036154D01*
X0101682Y0035954D01*
X0101838Y0035757D01*
X0101998Y0035565D01*
X0102162Y0035376D01*
X0102332Y0035192D01*
X0102505Y0035011D01*
X0102683Y0034836D01*
X0102866Y0034664D01*
X0103052Y0034497D01*
X0103243Y0034335D01*
X0103437Y0034177D01*
X0103635Y0034024D01*
X0103837Y0033876D01*
X0104043Y0033733D01*
X0104252Y0033595D01*
X0104464Y0033462D01*
X0104679Y0033335D01*
X0104898Y0033212D01*
X0105119Y0033096D01*
X0105343Y0032984D01*
X0105570Y0032878D01*
X0105799Y0032778D01*
X0106031Y0032683D01*
X0106265Y0032594D01*
X0106501Y0032511D01*
X0106739Y0032434D01*
X0106581Y0031918D01*
X0106580Y0031918D01*
X0106329Y0031999D01*
X0106081Y0032087D01*
X0105834Y0032180D01*
X0105590Y0032280D01*
X0105349Y0032386D01*
X0105110Y0032497D01*
X0104874Y0032614D01*
X0104641Y0032737D01*
X0104411Y0032866D01*
X0104184Y0033000D01*
X0103961Y0033140D01*
X0103741Y0033285D01*
X0103524Y0033436D01*
X0103312Y0033592D01*
X0103103Y0033753D01*
X0102898Y0033919D01*
X0102698Y0034090D01*
X0102501Y0034266D01*
X0102309Y0034446D01*
X0102122Y0034631D01*
X0101939Y0034821D01*
X0101761Y0035015D01*
X0101587Y0035214D01*
X0101419Y0035417D01*
X0101255Y0035623D01*
X0101097Y0035834D01*
X0100944Y0036049D01*
X0100796Y0036267D01*
X0100653Y0036488D01*
X0100516Y0036714D01*
X0100385Y0036942D01*
X0100259Y0037174D01*
X0100139Y0037408D01*
X0100024Y0037646D01*
X0099916Y0037886D01*
X0099813Y0038129D01*
X0099717Y0038374D01*
X0099626Y0038622D01*
X0099541Y0038871D01*
X0099463Y0039123D01*
X0099391Y0039376D01*
X0099325Y0039632D01*
X0099265Y0039888D01*
X0099212Y0040146D01*
X0099165Y0040406D01*
X0099124Y0040666D01*
X0099089Y0040927D01*
X0099062Y0041190D01*
X0099040Y0041452D01*
X0099025Y0041715D01*
X0099016Y0041979D01*
X0099014Y0042242D01*
X0099018Y0042506D01*
X0099029Y0042769D01*
X0099046Y0043032D01*
X0099070Y0043295D01*
X0099100Y0043557D01*
X0099136Y0043818D01*
X0099179Y0044078D01*
X0099228Y0044337D01*
X0099284Y0044595D01*
X0099345Y0044851D01*
X0099413Y0045105D01*
X0099488Y0045358D01*
X0099568Y0045609D01*
X0099654Y0045858D01*
X0099747Y0046105D01*
X0099846Y0046350D01*
X0099950Y0046592D01*
X0100060Y0046831D01*
X0100177Y0047068D01*
X0100299Y0047301D01*
X0100426Y0047532D01*
X0100560Y0047759D01*
X0100698Y0047983D01*
X0100843Y0048204D01*
X0100992Y0048421D01*
X0101147Y0048634D01*
X0101307Y0048844D01*
X0101351Y0048809D01*
X0101192Y0048601D01*
X0101038Y0048388D01*
X0100889Y0048173D01*
X0100746Y0047953D01*
X0100608Y0047730D01*
X0100475Y0047504D01*
X0100348Y0047275D01*
X0100227Y0047042D01*
X0100111Y0046807D01*
X0100001Y0046569D01*
X0099897Y0046328D01*
X0099799Y0046085D01*
X0099707Y0045839D01*
X0099621Y0045592D01*
X0099541Y0045342D01*
X0099467Y0045090D01*
X0099400Y0044837D01*
X0099338Y0044582D01*
X0099283Y0044326D01*
X0099234Y0044068D01*
X0099192Y0043809D01*
X0099155Y0043550D01*
X0099126Y0043289D01*
X0099102Y0043028D01*
X0099085Y0042766D01*
X0099074Y0042504D01*
X0099070Y0042242D01*
X0099072Y0041980D01*
X0099081Y0041718D01*
X0099096Y0041456D01*
X0099117Y0041195D01*
X0099145Y0040934D01*
X0099179Y0040674D01*
X0099220Y0040415D01*
X0099267Y0040157D01*
X0099320Y0039900D01*
X0099379Y0039645D01*
X0099445Y0039391D01*
X0099517Y0039139D01*
X0099595Y0038888D01*
X0099679Y0038640D01*
X0099769Y0038394D01*
X0099865Y0038150D01*
X0099967Y0037908D01*
X0100075Y0037669D01*
X0100189Y0037433D01*
X0100308Y0037200D01*
X0100434Y0036969D01*
X0100564Y0036742D01*
X0100701Y0036518D01*
X0100842Y0036298D01*
X0100990Y0036081D01*
X0101142Y0035867D01*
X0101299Y0035658D01*
X0101462Y0035452D01*
X0101630Y0035250D01*
X0101802Y0035053D01*
X0101980Y0034860D01*
X0102162Y0034671D01*
X0102348Y0034487D01*
X0102539Y0034307D01*
X0102734Y0034132D01*
X0102934Y0033962D01*
X0103138Y0033797D01*
X0103345Y0033637D01*
X0103557Y0033482D01*
X0103772Y0033332D01*
X0103991Y0033187D01*
X0104213Y0033048D01*
X0104439Y0032915D01*
X0104668Y0032787D01*
X0104899Y0032664D01*
X0105134Y0032548D01*
X0105372Y0032437D01*
X0105612Y0032332D01*
X0105855Y0032232D01*
X0106100Y0032139D01*
X0106347Y0032052D01*
X0106597Y0031971D01*
X0106613Y0032025D01*
X0106365Y0032105D01*
X0106119Y0032192D01*
X0105875Y0032285D01*
X0105634Y0032383D01*
X0105395Y0032488D01*
X0105158Y0032598D01*
X0104925Y0032714D01*
X0104694Y0032836D01*
X0104467Y0032963D01*
X0104242Y0033096D01*
X0104021Y0033235D01*
X0103803Y0033378D01*
X0103589Y0033527D01*
X0103379Y0033681D01*
X0103172Y0033841D01*
X0102970Y0034005D01*
X0102771Y0034174D01*
X0102577Y0034348D01*
X0102387Y0034527D01*
X0102201Y0034710D01*
X0102020Y0034898D01*
X0101844Y0035090D01*
X0101672Y0035287D01*
X0101506Y0035487D01*
X0101344Y0035692D01*
X0101187Y0035900D01*
X0101035Y0036113D01*
X0100889Y0036329D01*
X0100748Y0036548D01*
X0100613Y0036771D01*
X0100482Y0036997D01*
X0100358Y0037226D01*
X0100239Y0037458D01*
X0100126Y0037693D01*
X0100018Y0037931D01*
X0099917Y0038171D01*
X0099821Y0038414D01*
X0099732Y0038659D01*
X0099648Y0038906D01*
X0099570Y0039155D01*
X0099499Y0039406D01*
X0099434Y0039658D01*
X0099374Y0039912D01*
X0099322Y0040168D01*
X0099275Y0040424D01*
X0099235Y0040682D01*
X0099201Y0040941D01*
X0099173Y0041200D01*
X0099152Y0041460D01*
X0099137Y0041720D01*
X0099128Y0041981D01*
X0099126Y0042242D01*
X0099130Y0042503D01*
X0099141Y0042763D01*
X0099158Y0043024D01*
X0099181Y0043283D01*
X0099211Y0043543D01*
X0099247Y0043801D01*
X0099289Y0044058D01*
X0099338Y0044315D01*
X0099393Y0044569D01*
X0099454Y0044823D01*
X0099521Y0045075D01*
X0099595Y0045325D01*
X0099674Y0045574D01*
X0099760Y0045820D01*
X0099851Y0046064D01*
X0099949Y0046306D01*
X0100052Y0046546D01*
X0100161Y0046783D01*
X0100277Y0047017D01*
X0100397Y0047248D01*
X0100524Y0047476D01*
X0100655Y0047701D01*
X0100793Y0047923D01*
X0100936Y0048141D01*
X0101084Y0048356D01*
X0101237Y0048567D01*
X0101395Y0048774D01*
X0101439Y0048740D01*
X0101282Y0048533D01*
X0101129Y0048324D01*
X0100982Y0048110D01*
X0100840Y0047893D01*
X0100703Y0047672D01*
X0100572Y0047448D01*
X0100446Y0047221D01*
X0100326Y0046991D01*
X0100212Y0046758D01*
X0100103Y0046523D01*
X0100000Y0046285D01*
X0099903Y0046044D01*
X0099812Y0045801D01*
X0099727Y0045556D01*
X0099648Y0045309D01*
X0099575Y0045060D01*
X0099508Y0044809D01*
X0099447Y0044557D01*
X0099393Y0044303D01*
X0099344Y0044048D01*
X0099302Y0043792D01*
X0099266Y0043535D01*
X0099237Y0043278D01*
X0099214Y0043019D01*
X0099197Y0042760D01*
X0099186Y0042501D01*
X0099182Y0042242D01*
X0099184Y0041982D01*
X0099193Y0041723D01*
X0099208Y0041464D01*
X0099229Y0041205D01*
X0099256Y0040947D01*
X0099290Y0040690D01*
X0099330Y0040434D01*
X0099377Y0040178D01*
X0099429Y0039924D01*
X0099488Y0039672D01*
X0099553Y0039420D01*
X0099624Y0039171D01*
X0099701Y0038923D01*
X0099784Y0038677D01*
X0099874Y0038434D01*
X0099969Y0038192D01*
X0100070Y0037953D01*
X0100177Y0037717D01*
X0100289Y0037483D01*
X0100407Y0037252D01*
X0100531Y0037024D01*
X0100661Y0036799D01*
X0100796Y0036578D01*
X0100936Y0036359D01*
X0101081Y0036145D01*
X0101232Y0035933D01*
X0101388Y0035726D01*
X0101549Y0035523D01*
X0101715Y0035323D01*
X0101886Y0035128D01*
X0102061Y0034936D01*
X0102241Y0034750D01*
X0102426Y0034567D01*
X0102615Y0034390D01*
X0102808Y0034216D01*
X0103005Y0034048D01*
X0103207Y0033885D01*
X0103412Y0033726D01*
X0103622Y0033573D01*
X0103835Y0033425D01*
X0104051Y0033282D01*
X0104271Y0033144D01*
X0104494Y0033012D01*
X0104721Y0032885D01*
X0104950Y0032764D01*
X0105183Y0032649D01*
X0105418Y0032539D01*
X0105655Y0032435D01*
X0105896Y0032337D01*
X0106138Y0032245D01*
X0106383Y0032158D01*
X0106630Y0032078D01*
X0106646Y0032132D01*
X0106401Y0032211D01*
X0106157Y0032297D01*
X0105916Y0032389D01*
X0105677Y0032487D01*
X0105441Y0032590D01*
X0105207Y0032699D01*
X0104976Y0032814D01*
X0104747Y0032934D01*
X0104522Y0033060D01*
X0104300Y0033192D01*
X0104081Y0033329D01*
X0103866Y0033471D01*
X0103654Y0033618D01*
X0103446Y0033771D01*
X0103242Y0033929D01*
X0103041Y0034091D01*
X0102845Y0034259D01*
X0102652Y0034431D01*
X0102464Y0034608D01*
X0102281Y0034789D01*
X0102102Y0034975D01*
X0101927Y0035165D01*
X0101757Y0035359D01*
X0101593Y0035558D01*
X0101432Y0035760D01*
X0101277Y0035967D01*
X0101127Y0036177D01*
X0100983Y0036390D01*
X0100843Y0036607D01*
X0100709Y0036828D01*
X0100580Y0037052D01*
X0100457Y0037278D01*
X0100339Y0037508D01*
X0100227Y0037741D01*
X0100121Y0037976D01*
X0100021Y0038213D01*
X0099926Y0038454D01*
X0099837Y0038696D01*
X0099754Y0038940D01*
X0099678Y0039187D01*
X0099607Y0039435D01*
X0099542Y0039685D01*
X0099484Y0039936D01*
X0099432Y0040189D01*
X0099385Y0040443D01*
X0099346Y0040698D01*
X0099312Y0040954D01*
X0099285Y0041210D01*
X0099263Y0041468D01*
X0099249Y0041725D01*
X0099240Y0041983D01*
X0099238Y0042241D01*
X0099242Y0042499D01*
X0099253Y0042757D01*
X0099270Y0043015D01*
X0099293Y0043272D01*
X0099322Y0043528D01*
X0099358Y0043784D01*
X0099400Y0044039D01*
X0099448Y0044292D01*
X0099502Y0044544D01*
X0099562Y0044795D01*
X0099629Y0045045D01*
X0099702Y0045292D01*
X0099780Y0045538D01*
X0099865Y0045782D01*
X0099956Y0046024D01*
X0100052Y0046263D01*
X0100154Y0046500D01*
X0100263Y0046734D01*
X0100376Y0046966D01*
X0100496Y0047195D01*
X0100621Y0047420D01*
X0100751Y0047643D01*
X0100887Y0047863D01*
X0101028Y0048079D01*
X0101175Y0048291D01*
X0101326Y0048500D01*
X0101483Y0048705D01*
X0101527Y0048670D01*
X0101371Y0048466D01*
X0101220Y0048259D01*
X0101075Y0048047D01*
X0100934Y0047832D01*
X0100799Y0047614D01*
X0100669Y0047393D01*
X0100545Y0047168D01*
X0100426Y0046940D01*
X0100313Y0046710D01*
X0100205Y0046477D01*
X0100104Y0046241D01*
X0100008Y0046003D01*
X0099918Y0045763D01*
X0099833Y0045520D01*
X0099755Y0045276D01*
X0099683Y0045029D01*
X0099617Y0044781D01*
X0099556Y0044532D01*
X0099502Y0044281D01*
X0099455Y0044029D01*
X0099413Y0043775D01*
X0099378Y0043521D01*
X0099348Y0043266D01*
X0099325Y0043010D01*
X0099309Y0042754D01*
X0099298Y0042498D01*
X0099294Y0042241D01*
X0099296Y0041984D01*
X0099305Y0041728D01*
X0099319Y0041472D01*
X0099340Y0041216D01*
X0099368Y0040960D01*
X0099401Y0040706D01*
X0099441Y0040452D01*
X0099486Y0040200D01*
X0099539Y0039948D01*
X0099597Y0039698D01*
X0099661Y0039450D01*
X0099731Y0039203D01*
X0099808Y0038958D01*
X0099890Y0038715D01*
X0099978Y0038473D01*
X0100072Y0038235D01*
X0100172Y0037998D01*
X0100278Y0037764D01*
X0100389Y0037533D01*
X0100506Y0037304D01*
X0100629Y0037079D01*
X0100757Y0036856D01*
X0100890Y0036637D01*
X0101029Y0036421D01*
X0101173Y0036209D01*
X0101322Y0036000D01*
X0101477Y0035795D01*
X0101636Y0035593D01*
X0101800Y0035396D01*
X0101969Y0035202D01*
X0102143Y0035013D01*
X0102321Y0034828D01*
X0102503Y0034648D01*
X0102690Y0034472D01*
X0102882Y0034301D01*
X0103077Y0034134D01*
X0103276Y0033973D01*
X0103480Y0033816D01*
X0103687Y0033664D01*
X0103897Y0033517D01*
X0104111Y0033376D01*
X0104329Y0033240D01*
X0104550Y0033109D01*
X0104774Y0032984D01*
X0105001Y0032864D01*
X0105231Y0032750D01*
X0105464Y0032641D01*
X0105699Y0032538D01*
X0105936Y0032441D01*
X0106176Y0032350D01*
X0106418Y0032265D01*
X0106663Y0032185D01*
X0106679Y0032239D01*
X0106436Y0032318D01*
X0106195Y0032403D01*
X0105957Y0032493D01*
X0105720Y0032590D01*
X0105487Y0032692D01*
X0105255Y0032800D01*
X0105026Y0032914D01*
X0104801Y0033033D01*
X0104578Y0033158D01*
X0104358Y0033288D01*
X0104142Y0033423D01*
X0103929Y0033564D01*
X0103719Y0033710D01*
X0103513Y0033861D01*
X0103311Y0034017D01*
X0103113Y0034177D01*
X0102918Y0034343D01*
X0102728Y0034513D01*
X0102542Y0034688D01*
X0102360Y0034868D01*
X0102183Y0035052D01*
X0102011Y0035240D01*
X0101843Y0035432D01*
X0101679Y0035629D01*
X0101521Y0035829D01*
X0101368Y0036033D01*
X0101219Y0036241D01*
X0101076Y0036452D01*
X0100938Y0036667D01*
X0100805Y0036885D01*
X0100678Y0037106D01*
X0100556Y0037331D01*
X0100440Y0037558D01*
X0100329Y0037788D01*
X0100224Y0038021D01*
X0100124Y0038256D01*
X0100031Y0038493D01*
X0099943Y0038733D01*
X0099861Y0038975D01*
X0099785Y0039219D01*
X0099715Y0039464D01*
X0099651Y0039712D01*
X0099593Y0039960D01*
X0099541Y0040210D01*
X0099496Y0040462D01*
X0099456Y0040714D01*
X0099423Y0040967D01*
X0099396Y0041221D01*
X0099375Y0041475D01*
X0099361Y0041730D01*
X0099352Y0041985D01*
X0099350Y0042241D01*
X0099354Y0042496D01*
X0099365Y0042751D01*
X0099381Y0043006D01*
X0099404Y0043260D01*
X0099433Y0043514D01*
X0099468Y0043767D01*
X0099510Y0044019D01*
X0099557Y0044270D01*
X0099611Y0044519D01*
X0099671Y0044768D01*
X0099737Y0045014D01*
X0099809Y0045259D01*
X0099886Y0045502D01*
X0099970Y0045744D01*
X0100060Y0045983D01*
X0100155Y0046220D01*
X0100257Y0046454D01*
X0100364Y0046686D01*
X0100476Y0046915D01*
X0100594Y0047141D01*
X0100718Y0047365D01*
X0100847Y0047585D01*
X0100981Y0047802D01*
X0101121Y0048016D01*
X0101266Y0048226D01*
X0101416Y0048433D01*
X0101571Y0048636D01*
X0101615Y0048601D01*
X0101461Y0048399D01*
X0101312Y0048194D01*
X0101168Y0047985D01*
X0101029Y0047772D01*
X0100895Y0047556D01*
X0100767Y0047337D01*
X0100644Y0047115D01*
X0100526Y0046890D01*
X0100414Y0046662D01*
X0100308Y0046431D01*
X0100207Y0046198D01*
X0100112Y0045962D01*
X0100023Y0045725D01*
X0099940Y0045485D01*
X0099862Y0045243D01*
X0099791Y0044999D01*
X0099725Y0044754D01*
X0099666Y0044507D01*
X0099612Y0044259D01*
X0099565Y0044009D01*
X0099524Y0043758D01*
X0099489Y0043507D01*
X0099460Y0043255D01*
X0099437Y0043002D01*
X0099420Y0042748D01*
X0099410Y0042494D01*
X0099406Y0042241D01*
X0099408Y0041987D01*
X0099417Y0041733D01*
X0099431Y0041479D01*
X0099452Y0041226D01*
X0099479Y0040974D01*
X0099512Y0040722D01*
X0099551Y0040471D01*
X0099596Y0040221D01*
X0099648Y0039972D01*
X0099705Y0039725D01*
X0099769Y0039479D01*
X0099839Y0039235D01*
X0099914Y0038992D01*
X0099996Y0038752D01*
X0100083Y0038513D01*
X0100176Y0038277D01*
X0100275Y0038043D01*
X0100379Y0037812D01*
X0100490Y0037583D01*
X0100605Y0037357D01*
X0100727Y0037134D01*
X0100853Y0036914D01*
X0100985Y0036697D01*
X0101123Y0036483D01*
X0101265Y0036273D01*
X0101413Y0036066D01*
X0101565Y0035863D01*
X0101723Y0035664D01*
X0101885Y0035469D01*
X0102052Y0035277D01*
X0102224Y0035090D01*
X0102400Y0034907D01*
X0102581Y0034729D01*
X0102766Y0034555D01*
X0102955Y0034385D01*
X0103148Y0034221D01*
X0103346Y0034061D01*
X0103547Y0033906D01*
X0103751Y0033755D01*
X0103960Y0033610D01*
X0104172Y0033470D01*
X0104387Y0033336D01*
X0104606Y0033206D01*
X0104827Y0033082D01*
X0105052Y0032964D01*
X0105279Y0032851D01*
X0105509Y0032743D01*
X0105742Y0032641D01*
X0105977Y0032545D01*
X0106215Y0032455D01*
X0106454Y0032371D01*
X0106696Y0032292D01*
X0106712Y0032346D01*
X0106472Y0032424D01*
X0106234Y0032508D01*
X0105998Y0032598D01*
X0105764Y0032693D01*
X0105532Y0032794D01*
X0105304Y0032901D01*
X0105077Y0033014D01*
X0104854Y0033131D01*
X0104634Y0033255D01*
X0104416Y0033384D01*
X0104202Y0033518D01*
X0103991Y0033657D01*
X0103784Y0033801D01*
X0103580Y0033950D01*
X0103380Y0034105D01*
X0103184Y0034264D01*
X0102992Y0034428D01*
X0102804Y0034596D01*
X0102620Y0034769D01*
X0102440Y0034947D01*
X0102265Y0035129D01*
X0102094Y0035315D01*
X0101928Y0035505D01*
X0101766Y0035699D01*
X0101610Y0035897D01*
X0101458Y0036099D01*
X0101311Y0036305D01*
X0101169Y0036514D01*
X0101033Y0036726D01*
X0100902Y0036942D01*
X0100776Y0037161D01*
X0100655Y0037383D01*
X0100540Y0037608D01*
X0100430Y0037835D01*
X0100326Y0038066D01*
X0100228Y0038298D01*
X0100135Y0038533D01*
X0100048Y0038770D01*
X0099967Y0039010D01*
X0099892Y0039251D01*
X0099823Y0039494D01*
X0099760Y0039738D01*
X0099703Y0039984D01*
X0099651Y0040232D01*
X0099606Y0040480D01*
X0099567Y0040730D01*
X0099534Y0040980D01*
X0099508Y0041231D01*
X0099487Y0041483D01*
X0099472Y0041735D01*
X0099464Y0041988D01*
X0099462Y0042240D01*
X0099466Y0042493D01*
X0099476Y0042745D01*
X0099493Y0042997D01*
X0099515Y0043249D01*
X0099544Y0043500D01*
X0099579Y0043750D01*
X0099620Y0043999D01*
X0099667Y0044247D01*
X0099720Y0044494D01*
X0099779Y0044740D01*
X0099845Y0044984D01*
X0099916Y0045226D01*
X0099993Y0045467D01*
X0100075Y0045705D01*
X0100164Y0045942D01*
X0100259Y0046176D01*
X0100359Y0046408D01*
X0100465Y0046637D01*
X0100576Y0046864D01*
X0100693Y0047088D01*
X0100815Y0047309D01*
X0100943Y0047527D01*
X0101076Y0047742D01*
X0101214Y0047953D01*
X0101357Y0048161D01*
X0101506Y0048366D01*
X0101659Y0048566D01*
X0101703Y0048532D01*
X0101551Y0048332D01*
X0101403Y0048129D01*
X0101260Y0047922D01*
X0101123Y0047712D01*
X0100991Y0047498D01*
X0100864Y0047281D01*
X0100742Y0047061D01*
X0100626Y0046839D01*
X0100515Y0046613D01*
X0100410Y0046385D01*
X0100310Y0046155D01*
X0100216Y0045922D01*
X0100128Y0045686D01*
X0100046Y0045449D01*
X0099969Y0045210D01*
X0099898Y0044969D01*
X0099834Y0044726D01*
X0099775Y0044482D01*
X0099722Y0044236D01*
X0099675Y0043989D01*
X0099634Y0043741D01*
X0099600Y0043493D01*
X0099571Y0043243D01*
X0099549Y0042993D01*
X0099532Y0042742D01*
X0099522Y0042491D01*
X0099518Y0042240D01*
X0099520Y0041989D01*
X0099528Y0041738D01*
X0099543Y0041487D01*
X0099563Y0041237D01*
X0099590Y0040987D01*
X0099623Y0040738D01*
X0099662Y0040489D01*
X0099706Y0040242D01*
X0099757Y0039996D01*
X0099814Y0039752D01*
X0099877Y0039508D01*
X0099946Y0039267D01*
X0100021Y0039027D01*
X0100101Y0038789D01*
X0100188Y0038553D01*
X0100280Y0038319D01*
X0100378Y0038088D01*
X0100481Y0037859D01*
X0100590Y0037633D01*
X0100704Y0037409D01*
X0100824Y0037188D01*
X0100950Y0036971D01*
X0101080Y0036756D01*
X0101216Y0036545D01*
X0101357Y0036337D01*
X0101503Y0036132D01*
X0101654Y0035932D01*
X0101810Y0035734D01*
X0101970Y0035541D01*
X0102136Y0035352D01*
X0102306Y0035167D01*
X0102480Y0034986D01*
X0102659Y0034810D01*
X0102842Y0034637D01*
X0103029Y0034470D01*
X0103220Y0034307D01*
X0103415Y0034149D01*
X0103614Y0033995D01*
X0103816Y0033847D01*
X0104023Y0033703D01*
X0104232Y0033565D01*
X0104445Y0033431D01*
X0104661Y0033303D01*
X0104881Y0033181D01*
X0105103Y0033063D01*
X0105328Y0032952D01*
X0105555Y0032845D01*
X0105785Y0032745D01*
X0106018Y0032650D01*
X0106253Y0032560D01*
X0106490Y0032477D01*
X0106729Y0032399D01*
X0120504Y0043255D02*
X0119966Y0043204D01*
X0119967Y0043205D02*
X0119940Y0043444D01*
X0119908Y0043684D01*
X0119870Y0043922D01*
X0119827Y0044159D01*
X0119778Y0044396D01*
X0119723Y0044631D01*
X0119663Y0044865D01*
X0119597Y0045097D01*
X0119526Y0045328D01*
X0119450Y0045557D01*
X0119368Y0045784D01*
X0119281Y0046009D01*
X0119188Y0046232D01*
X0119090Y0046452D01*
X0118987Y0046671D01*
X0118879Y0046887D01*
X0118766Y0047100D01*
X0118648Y0047310D01*
X0118525Y0047518D01*
X0118397Y0047723D01*
X0118265Y0047924D01*
X0118127Y0048123D01*
X0117985Y0048318D01*
X0117838Y0048510D01*
X0118262Y0048843D01*
X0118263Y0048844D01*
X0118417Y0048642D01*
X0118567Y0048436D01*
X0118711Y0048227D01*
X0118851Y0048015D01*
X0118986Y0047799D01*
X0119116Y0047581D01*
X0119240Y0047359D01*
X0119359Y0047134D01*
X0119473Y0046907D01*
X0119581Y0046677D01*
X0119684Y0046445D01*
X0119782Y0046210D01*
X0119874Y0045973D01*
X0119960Y0045734D01*
X0120040Y0045492D01*
X0120115Y0045249D01*
X0120184Y0045005D01*
X0120248Y0044758D01*
X0120305Y0044511D01*
X0120357Y0044262D01*
X0120403Y0044012D01*
X0120442Y0043761D01*
X0120476Y0043509D01*
X0120504Y0043256D01*
X0120448Y0043251D01*
X0120421Y0043502D01*
X0120387Y0043753D01*
X0120347Y0044002D01*
X0120302Y0044251D01*
X0120250Y0044499D01*
X0120193Y0044745D01*
X0120130Y0044990D01*
X0120062Y0045234D01*
X0119987Y0045475D01*
X0119907Y0045715D01*
X0119821Y0045953D01*
X0119730Y0046189D01*
X0119633Y0046422D01*
X0119530Y0046654D01*
X0119423Y0046883D01*
X0119309Y0047109D01*
X0119191Y0047332D01*
X0119067Y0047553D01*
X0118938Y0047770D01*
X0118804Y0047985D01*
X0118665Y0048196D01*
X0118521Y0048404D01*
X0118372Y0048608D01*
X0118219Y0048809D01*
X0118175Y0048775D01*
X0118327Y0048575D01*
X0118476Y0048371D01*
X0118619Y0048165D01*
X0118757Y0047954D01*
X0118890Y0047741D01*
X0119019Y0047525D01*
X0119142Y0047305D01*
X0119260Y0047083D01*
X0119372Y0046858D01*
X0119480Y0046630D01*
X0119581Y0046400D01*
X0119678Y0046168D01*
X0119769Y0045933D01*
X0119854Y0045697D01*
X0119934Y0045458D01*
X0120008Y0045218D01*
X0120076Y0044976D01*
X0120139Y0044732D01*
X0120196Y0044487D01*
X0120247Y0044241D01*
X0120292Y0043993D01*
X0120331Y0043745D01*
X0120365Y0043495D01*
X0120393Y0043245D01*
X0120337Y0043240D01*
X0120309Y0043489D01*
X0120276Y0043737D01*
X0120237Y0043984D01*
X0120192Y0044230D01*
X0120141Y0044475D01*
X0120084Y0044719D01*
X0120022Y0044961D01*
X0119954Y0045202D01*
X0119880Y0045441D01*
X0119801Y0045678D01*
X0119716Y0045914D01*
X0119626Y0046147D01*
X0119530Y0046378D01*
X0119429Y0046607D01*
X0119322Y0046833D01*
X0119210Y0047057D01*
X0119093Y0047278D01*
X0118970Y0047497D01*
X0118843Y0047712D01*
X0118710Y0047924D01*
X0118572Y0048133D01*
X0118430Y0048339D01*
X0118283Y0048541D01*
X0118131Y0048740D01*
X0118087Y0048705D01*
X0118238Y0048507D01*
X0118384Y0048306D01*
X0118526Y0048102D01*
X0118663Y0047894D01*
X0118795Y0047683D01*
X0118922Y0047469D01*
X0119043Y0047251D01*
X0119160Y0047032D01*
X0119272Y0046809D01*
X0119378Y0046584D01*
X0119478Y0046356D01*
X0119574Y0046126D01*
X0119664Y0045894D01*
X0119748Y0045660D01*
X0119827Y0045424D01*
X0119900Y0045186D01*
X0119968Y0044947D01*
X0120030Y0044706D01*
X0120086Y0044463D01*
X0120137Y0044219D01*
X0120182Y0043975D01*
X0120221Y0043729D01*
X0120254Y0043482D01*
X0120281Y0043235D01*
X0120225Y0043229D01*
X0120198Y0043475D01*
X0120165Y0043721D01*
X0120126Y0043965D01*
X0120082Y0044209D01*
X0120032Y0044451D01*
X0119976Y0044692D01*
X0119914Y0044932D01*
X0119847Y0045170D01*
X0119774Y0045407D01*
X0119695Y0045642D01*
X0119611Y0045875D01*
X0119522Y0046105D01*
X0119427Y0046334D01*
X0119327Y0046561D01*
X0119221Y0046784D01*
X0119110Y0047006D01*
X0118994Y0047225D01*
X0118873Y0047440D01*
X0118747Y0047653D01*
X0118616Y0047863D01*
X0118480Y0048070D01*
X0118339Y0048274D01*
X0118193Y0048474D01*
X0118043Y0048671D01*
X0117999Y0048636D01*
X0118148Y0048440D01*
X0118293Y0048241D01*
X0118433Y0048039D01*
X0118569Y0047833D01*
X0118699Y0047624D01*
X0118825Y0047412D01*
X0118945Y0047198D01*
X0119061Y0046980D01*
X0119171Y0046760D01*
X0119276Y0046537D01*
X0119376Y0046312D01*
X0119470Y0046085D01*
X0119559Y0045855D01*
X0119642Y0045623D01*
X0119720Y0045390D01*
X0119793Y0045155D01*
X0119860Y0044918D01*
X0119921Y0044679D01*
X0119977Y0044439D01*
X0120027Y0044198D01*
X0120071Y0043956D01*
X0120110Y0043713D01*
X0120143Y0043469D01*
X0120170Y0043224D01*
X0120114Y0043219D01*
X0120087Y0043462D01*
X0120054Y0043705D01*
X0120016Y0043947D01*
X0119972Y0044188D01*
X0119922Y0044427D01*
X0119867Y0044666D01*
X0119806Y0044903D01*
X0119739Y0045139D01*
X0119667Y0045373D01*
X0119589Y0045605D01*
X0119506Y0045835D01*
X0119418Y0046064D01*
X0119324Y0046290D01*
X0119225Y0046514D01*
X0119120Y0046735D01*
X0119011Y0046954D01*
X0118896Y0047171D01*
X0118776Y0047384D01*
X0118651Y0047595D01*
X0118522Y0047803D01*
X0118387Y0048007D01*
X0118248Y0048209D01*
X0118103Y0048407D01*
X0117955Y0048601D01*
X0117911Y0048567D01*
X0118059Y0048373D01*
X0118202Y0048176D01*
X0118341Y0047976D01*
X0118475Y0047772D01*
X0118604Y0047566D01*
X0118728Y0047356D01*
X0118847Y0047144D01*
X0118961Y0046929D01*
X0119070Y0046711D01*
X0119174Y0046491D01*
X0119273Y0046268D01*
X0119366Y0046043D01*
X0119454Y0045816D01*
X0119537Y0045587D01*
X0119614Y0045356D01*
X0119685Y0045123D01*
X0119752Y0044889D01*
X0119812Y0044653D01*
X0119867Y0044415D01*
X0119917Y0044177D01*
X0119961Y0043937D01*
X0119999Y0043697D01*
X0120031Y0043455D01*
X0120058Y0043213D01*
X0120002Y0043208D01*
X0119976Y0043449D01*
X0119943Y0043689D01*
X0119906Y0043928D01*
X0119862Y0044166D01*
X0119813Y0044403D01*
X0119758Y0044639D01*
X0119698Y0044874D01*
X0119632Y0045107D01*
X0119560Y0045339D01*
X0119484Y0045568D01*
X0119401Y0045796D01*
X0119314Y0046022D01*
X0119221Y0046246D01*
X0119123Y0046467D01*
X0119020Y0046686D01*
X0118911Y0046903D01*
X0118798Y0047117D01*
X0118679Y0047328D01*
X0118556Y0047537D01*
X0118428Y0047742D01*
X0118294Y0047944D01*
X0118156Y0048144D01*
X0118014Y0048339D01*
X0117867Y0048532D01*
X0112989Y0031918D02*
X0112830Y0032434D01*
X0112830Y0032433D02*
X0113067Y0032510D01*
X0113301Y0032593D01*
X0113534Y0032681D01*
X0113764Y0032775D01*
X0113992Y0032875D01*
X0114217Y0032980D01*
X0114440Y0033090D01*
X0114660Y0033206D01*
X0114877Y0033327D01*
X0115091Y0033453D01*
X0115302Y0033585D01*
X0115510Y0033721D01*
X0115714Y0033863D01*
X0115915Y0034009D01*
X0116112Y0034161D01*
X0116306Y0034317D01*
X0116496Y0034478D01*
X0116681Y0034643D01*
X0116863Y0034813D01*
X0117040Y0034987D01*
X0117214Y0035165D01*
X0117382Y0035348D01*
X0117547Y0035535D01*
X0117706Y0035725D01*
X0117861Y0035920D01*
X0118012Y0036118D01*
X0118157Y0036319D01*
X0118297Y0036525D01*
X0118433Y0036733D01*
X0118563Y0036945D01*
X0118688Y0037160D01*
X0118808Y0037378D01*
X0118923Y0037598D01*
X0119032Y0037822D01*
X0119135Y0038048D01*
X0119234Y0038276D01*
X0119326Y0038507D01*
X0119413Y0038740D01*
X0119494Y0038975D01*
X0119570Y0039212D01*
X0119640Y0039450D01*
X0119703Y0039691D01*
X0119762Y0039932D01*
X0119814Y0040176D01*
X0119860Y0040420D01*
X0119900Y0040665D01*
X0119935Y0040911D01*
X0119963Y0041158D01*
X0119985Y0041406D01*
X0120001Y0041654D01*
X0120012Y0041903D01*
X0120016Y0042151D01*
X0120014Y0042400D01*
X0120006Y0042648D01*
X0119992Y0042897D01*
X0119972Y0043144D01*
X0120509Y0043195D01*
X0120510Y0043196D01*
X0120531Y0042935D01*
X0120546Y0042673D01*
X0120554Y0042412D01*
X0120556Y0042150D01*
X0120551Y0041888D01*
X0120541Y0041627D01*
X0120524Y0041365D01*
X0120500Y0041105D01*
X0120470Y0040844D01*
X0120434Y0040585D01*
X0120392Y0040327D01*
X0120343Y0040070D01*
X0120288Y0039814D01*
X0120227Y0039559D01*
X0120160Y0039306D01*
X0120086Y0039055D01*
X0120007Y0038805D01*
X0119921Y0038558D01*
X0119830Y0038312D01*
X0119732Y0038069D01*
X0119629Y0037829D01*
X0119520Y0037591D01*
X0119405Y0037356D01*
X0119284Y0037123D01*
X0119158Y0036894D01*
X0119026Y0036668D01*
X0118889Y0036445D01*
X0118747Y0036225D01*
X0118599Y0036009D01*
X0118446Y0035797D01*
X0118287Y0035588D01*
X0118124Y0035383D01*
X0117956Y0035183D01*
X0117783Y0034986D01*
X0117605Y0034794D01*
X0117423Y0034606D01*
X0117236Y0034423D01*
X0117045Y0034244D01*
X0116849Y0034070D01*
X0116650Y0033900D01*
X0116446Y0033736D01*
X0116238Y0033577D01*
X0116027Y0033422D01*
X0115811Y0033273D01*
X0115593Y0033129D01*
X0115370Y0032991D01*
X0115145Y0032858D01*
X0114916Y0032730D01*
X0114685Y0032609D01*
X0114450Y0032492D01*
X0114213Y0032382D01*
X0113973Y0032277D01*
X0113730Y0032178D01*
X0113485Y0032085D01*
X0113238Y0031998D01*
X0112989Y0031917D01*
X0112973Y0031971D01*
X0113221Y0032051D01*
X0113466Y0032138D01*
X0113710Y0032230D01*
X0113951Y0032329D01*
X0114190Y0032433D01*
X0114426Y0032543D01*
X0114659Y0032658D01*
X0114890Y0032780D01*
X0115117Y0032907D01*
X0115342Y0033039D01*
X0115563Y0033177D01*
X0115780Y0033320D01*
X0115994Y0033468D01*
X0116205Y0033622D01*
X0116411Y0033780D01*
X0116614Y0033944D01*
X0116813Y0034112D01*
X0117007Y0034285D01*
X0117197Y0034463D01*
X0117383Y0034646D01*
X0117565Y0034832D01*
X0117742Y0035024D01*
X0117914Y0035219D01*
X0118081Y0035419D01*
X0118243Y0035622D01*
X0118401Y0035830D01*
X0118553Y0036041D01*
X0118700Y0036256D01*
X0118842Y0036475D01*
X0118978Y0036696D01*
X0119109Y0036921D01*
X0119235Y0037150D01*
X0119355Y0037381D01*
X0119469Y0037615D01*
X0119578Y0037852D01*
X0119681Y0038091D01*
X0119778Y0038333D01*
X0119869Y0038577D01*
X0119954Y0038823D01*
X0120033Y0039071D01*
X0120106Y0039321D01*
X0120173Y0039573D01*
X0120234Y0039826D01*
X0120288Y0040081D01*
X0120337Y0040336D01*
X0120379Y0040593D01*
X0120415Y0040851D01*
X0120444Y0041110D01*
X0120468Y0041370D01*
X0120485Y0041629D01*
X0120496Y0041890D01*
X0120500Y0042150D01*
X0120498Y0042411D01*
X0120490Y0042671D01*
X0120475Y0042931D01*
X0120454Y0043190D01*
X0120398Y0043185D01*
X0120419Y0042927D01*
X0120434Y0042668D01*
X0120442Y0042409D01*
X0120444Y0042150D01*
X0120440Y0041891D01*
X0120429Y0041632D01*
X0120412Y0041374D01*
X0120389Y0041116D01*
X0120359Y0040858D01*
X0120323Y0040602D01*
X0120282Y0040346D01*
X0120233Y0040092D01*
X0120179Y0039838D01*
X0120119Y0039586D01*
X0120052Y0039336D01*
X0119979Y0039087D01*
X0119901Y0038840D01*
X0119816Y0038595D01*
X0119725Y0038353D01*
X0119629Y0038112D01*
X0119527Y0037874D01*
X0119419Y0037639D01*
X0119305Y0037406D01*
X0119186Y0037176D01*
X0119061Y0036949D01*
X0118930Y0036725D01*
X0118795Y0036504D01*
X0118653Y0036287D01*
X0118507Y0036073D01*
X0118356Y0035863D01*
X0118199Y0035657D01*
X0118038Y0035454D01*
X0117871Y0035256D01*
X0117700Y0035061D01*
X0117524Y0034871D01*
X0117344Y0034685D01*
X0117159Y0034504D01*
X0116969Y0034327D01*
X0116776Y0034154D01*
X0116578Y0033987D01*
X0116377Y0033824D01*
X0116171Y0033666D01*
X0115962Y0033514D01*
X0115749Y0033366D01*
X0115532Y0033224D01*
X0115313Y0033087D01*
X0115089Y0032955D01*
X0114863Y0032829D01*
X0114634Y0032708D01*
X0114402Y0032593D01*
X0114167Y0032484D01*
X0113929Y0032380D01*
X0113689Y0032283D01*
X0113447Y0032191D01*
X0113203Y0032105D01*
X0112956Y0032024D01*
X0112940Y0032078D01*
X0113185Y0032158D01*
X0113428Y0032243D01*
X0113669Y0032335D01*
X0113908Y0032432D01*
X0114144Y0032535D01*
X0114378Y0032644D01*
X0114608Y0032758D01*
X0114837Y0032878D01*
X0115062Y0033004D01*
X0115284Y0033135D01*
X0115502Y0033271D01*
X0115718Y0033413D01*
X0115929Y0033559D01*
X0116138Y0033711D01*
X0116342Y0033868D01*
X0116543Y0034030D01*
X0116739Y0034197D01*
X0116932Y0034368D01*
X0117120Y0034544D01*
X0117304Y0034725D01*
X0117483Y0034909D01*
X0117658Y0035099D01*
X0117829Y0035292D01*
X0117994Y0035490D01*
X0118155Y0035691D01*
X0118311Y0035897D01*
X0118461Y0036106D01*
X0118607Y0036318D01*
X0118747Y0036534D01*
X0118882Y0036754D01*
X0119012Y0036977D01*
X0119136Y0037202D01*
X0119255Y0037431D01*
X0119368Y0037663D01*
X0119475Y0037897D01*
X0119577Y0038134D01*
X0119673Y0038373D01*
X0119763Y0038614D01*
X0119847Y0038858D01*
X0119926Y0039103D01*
X0119998Y0039351D01*
X0120064Y0039600D01*
X0120124Y0039851D01*
X0120178Y0040102D01*
X0120226Y0040356D01*
X0120268Y0040610D01*
X0120304Y0040865D01*
X0120333Y0041121D01*
X0120356Y0041378D01*
X0120373Y0041635D01*
X0120384Y0041893D01*
X0120388Y0042150D01*
X0120386Y0042408D01*
X0120378Y0042666D01*
X0120363Y0042923D01*
X0120343Y0043180D01*
X0120287Y0043174D01*
X0120307Y0042919D01*
X0120322Y0042663D01*
X0120330Y0042407D01*
X0120332Y0042150D01*
X0120328Y0041894D01*
X0120317Y0041638D01*
X0120300Y0041382D01*
X0120277Y0041127D01*
X0120248Y0040872D01*
X0120213Y0040618D01*
X0120171Y0040365D01*
X0120124Y0040113D01*
X0120070Y0039863D01*
X0120010Y0039614D01*
X0119944Y0039366D01*
X0119872Y0039120D01*
X0119794Y0038876D01*
X0119711Y0038633D01*
X0119621Y0038393D01*
X0119525Y0038155D01*
X0119424Y0037920D01*
X0119317Y0037687D01*
X0119205Y0037456D01*
X0119087Y0037229D01*
X0118963Y0037004D01*
X0118834Y0036783D01*
X0118700Y0036564D01*
X0118560Y0036349D01*
X0118415Y0036138D01*
X0118266Y0035930D01*
X0118111Y0035726D01*
X0117951Y0035525D01*
X0117786Y0035329D01*
X0117617Y0035136D01*
X0117443Y0034948D01*
X0117264Y0034764D01*
X0117081Y0034584D01*
X0116894Y0034409D01*
X0116703Y0034239D01*
X0116507Y0034073D01*
X0116308Y0033912D01*
X0116104Y0033756D01*
X0115897Y0033605D01*
X0115686Y0033459D01*
X0115472Y0033318D01*
X0115255Y0033183D01*
X0115034Y0033052D01*
X0114810Y0032928D01*
X0114583Y0032808D01*
X0114353Y0032694D01*
X0114121Y0032586D01*
X0113886Y0032484D01*
X0113649Y0032387D01*
X0113409Y0032296D01*
X0113167Y0032211D01*
X0112923Y0032132D01*
X0112907Y0032185D01*
X0113149Y0032264D01*
X0113390Y0032349D01*
X0113628Y0032439D01*
X0113864Y0032535D01*
X0114098Y0032637D01*
X0114329Y0032745D01*
X0114558Y0032858D01*
X0114783Y0032977D01*
X0115006Y0033101D01*
X0115226Y0033231D01*
X0115442Y0033365D01*
X0115655Y0033506D01*
X0115865Y0033651D01*
X0116071Y0033801D01*
X0116273Y0033956D01*
X0116471Y0034116D01*
X0116666Y0034281D01*
X0116856Y0034451D01*
X0117043Y0034625D01*
X0117225Y0034804D01*
X0117402Y0034987D01*
X0117575Y0035174D01*
X0117744Y0035365D01*
X0117908Y0035561D01*
X0118066Y0035760D01*
X0118221Y0035963D01*
X0118370Y0036170D01*
X0118514Y0036380D01*
X0118653Y0036594D01*
X0118786Y0036811D01*
X0118914Y0037032D01*
X0119037Y0037255D01*
X0119155Y0037481D01*
X0119267Y0037711D01*
X0119373Y0037942D01*
X0119474Y0038177D01*
X0119569Y0038413D01*
X0119658Y0038652D01*
X0119741Y0038893D01*
X0119819Y0039136D01*
X0119890Y0039381D01*
X0119956Y0039627D01*
X0120015Y0039875D01*
X0120069Y0040124D01*
X0120116Y0040375D01*
X0120157Y0040627D01*
X0120193Y0040879D01*
X0120222Y0041132D01*
X0120244Y0041386D01*
X0120261Y0041641D01*
X0120272Y0041896D01*
X0120276Y0042151D01*
X0120274Y0042406D01*
X0120266Y0042660D01*
X0120252Y0042915D01*
X0120231Y0043169D01*
X0120175Y0043164D01*
X0120196Y0042911D01*
X0120210Y0042658D01*
X0120218Y0042404D01*
X0120220Y0042151D01*
X0120216Y0041897D01*
X0120205Y0041644D01*
X0120189Y0041391D01*
X0120166Y0041138D01*
X0120137Y0040886D01*
X0120102Y0040635D01*
X0120061Y0040385D01*
X0120014Y0040135D01*
X0119961Y0039887D01*
X0119901Y0039641D01*
X0119836Y0039396D01*
X0119765Y0039152D01*
X0119688Y0038911D01*
X0119605Y0038671D01*
X0119516Y0038433D01*
X0119422Y0038198D01*
X0119322Y0037965D01*
X0119216Y0037735D01*
X0119105Y0037507D01*
X0118988Y0037282D01*
X0118866Y0037059D01*
X0118738Y0036840D01*
X0118605Y0036624D01*
X0118467Y0036411D01*
X0118324Y0036202D01*
X0118176Y0035996D01*
X0118022Y0035794D01*
X0117864Y0035596D01*
X0117701Y0035402D01*
X0117534Y0035211D01*
X0117362Y0035025D01*
X0117185Y0034843D01*
X0117004Y0034665D01*
X0116819Y0034492D01*
X0116629Y0034324D01*
X0116436Y0034160D01*
X0116238Y0034000D01*
X0116037Y0033846D01*
X0115832Y0033696D01*
X0115624Y0033552D01*
X0115412Y0033413D01*
X0115197Y0033279D01*
X0114978Y0033150D01*
X0114757Y0033026D01*
X0114532Y0032908D01*
X0114305Y0032795D01*
X0114075Y0032688D01*
X0113843Y0032587D01*
X0113608Y0032491D01*
X0113371Y0032401D01*
X0113132Y0032317D01*
X0112890Y0032239D01*
X0112874Y0032292D01*
X0113114Y0032370D01*
X0113352Y0032454D01*
X0113588Y0032543D01*
X0113821Y0032639D01*
X0114052Y0032739D01*
X0114281Y0032846D01*
X0114507Y0032958D01*
X0114730Y0033075D01*
X0114951Y0033198D01*
X0115168Y0033326D01*
X0115382Y0033460D01*
X0115593Y0033598D01*
X0115800Y0033742D01*
X0116004Y0033891D01*
X0116204Y0034044D01*
X0116400Y0034203D01*
X0116593Y0034366D01*
X0116781Y0034534D01*
X0116965Y0034706D01*
X0117145Y0034883D01*
X0117321Y0035064D01*
X0117492Y0035249D01*
X0117659Y0035438D01*
X0117821Y0035632D01*
X0117978Y0035829D01*
X0118131Y0036030D01*
X0118278Y0036234D01*
X0118420Y0036443D01*
X0118558Y0036654D01*
X0118690Y0036869D01*
X0118817Y0037087D01*
X0118939Y0037308D01*
X0119055Y0037532D01*
X0119166Y0037758D01*
X0119271Y0037988D01*
X0119370Y0038219D01*
X0119464Y0038454D01*
X0119552Y0038690D01*
X0119635Y0038928D01*
X0119711Y0039169D01*
X0119782Y0039411D01*
X0119847Y0039655D01*
X0119906Y0039900D01*
X0119959Y0040146D01*
X0120006Y0040394D01*
X0120047Y0040643D01*
X0120081Y0040893D01*
X0120110Y0041144D01*
X0120133Y0041395D01*
X0120149Y0041647D01*
X0120160Y0041899D01*
X0120164Y0042151D01*
X0120162Y0042403D01*
X0120154Y0042655D01*
X0120140Y0042907D01*
X0120120Y0043158D01*
X0120064Y0043153D01*
X0120084Y0042903D01*
X0120098Y0042653D01*
X0120106Y0042402D01*
X0120108Y0042151D01*
X0120104Y0041900D01*
X0120093Y0041649D01*
X0120077Y0041399D01*
X0120054Y0041149D01*
X0120026Y0040900D01*
X0119991Y0040652D01*
X0119951Y0040404D01*
X0119904Y0040157D01*
X0119851Y0039912D01*
X0119793Y0039668D01*
X0119728Y0039426D01*
X0119658Y0039185D01*
X0119582Y0038946D01*
X0119500Y0038709D01*
X0119412Y0038474D01*
X0119319Y0038241D01*
X0119220Y0038010D01*
X0119115Y0037782D01*
X0119005Y0037557D01*
X0118889Y0037334D01*
X0118768Y0037114D01*
X0118642Y0036898D01*
X0118511Y0036684D01*
X0118374Y0036474D01*
X0118232Y0036267D01*
X0118085Y0036063D01*
X0117934Y0035863D01*
X0117777Y0035667D01*
X0117616Y0035475D01*
X0117451Y0035286D01*
X0117280Y0035102D01*
X0117106Y0034922D01*
X0116927Y0034746D01*
X0116743Y0034575D01*
X0116556Y0034408D01*
X0116365Y0034246D01*
X0116169Y0034088D01*
X0115970Y0033936D01*
X0115768Y0033788D01*
X0115561Y0033645D01*
X0115352Y0033507D01*
X0115139Y0033374D01*
X0114923Y0033247D01*
X0114704Y0033125D01*
X0114482Y0033008D01*
X0114257Y0032897D01*
X0114029Y0032791D01*
X0113799Y0032690D01*
X0113567Y0032596D01*
X0113333Y0032506D01*
X0113096Y0032423D01*
X0112857Y0032346D01*
X0112841Y0032399D01*
X0113078Y0032476D01*
X0113314Y0032559D01*
X0113547Y0032648D01*
X0113778Y0032742D01*
X0114007Y0032842D01*
X0114233Y0032947D01*
X0114456Y0033058D01*
X0114677Y0033174D01*
X0114895Y0033296D01*
X0115110Y0033422D01*
X0115322Y0033554D01*
X0115530Y0033691D01*
X0115735Y0033834D01*
X0115937Y0033981D01*
X0116135Y0034133D01*
X0116329Y0034289D01*
X0116519Y0034451D01*
X0116706Y0034616D01*
X0116888Y0034787D01*
X0117066Y0034962D01*
X0117240Y0035141D01*
X0117409Y0035324D01*
X0117574Y0035511D01*
X0117734Y0035702D01*
X0117890Y0035898D01*
X0118040Y0036096D01*
X0118186Y0036299D01*
X0118327Y0036505D01*
X0118463Y0036714D01*
X0118594Y0036926D01*
X0118720Y0037142D01*
X0118840Y0037361D01*
X0118955Y0037582D01*
X0119064Y0037806D01*
X0119168Y0038033D01*
X0119267Y0038262D01*
X0119360Y0038494D01*
X0119447Y0038728D01*
X0119528Y0038964D01*
X0119604Y0039201D01*
X0119674Y0039441D01*
X0119738Y0039682D01*
X0119797Y0039924D01*
X0119849Y0040168D01*
X0119895Y0040414D01*
X0119936Y0040660D01*
X0119970Y0040907D01*
X0119999Y0041155D01*
X0120021Y0041403D01*
X0120037Y0041652D01*
X0120048Y0041902D01*
X0120052Y0042151D01*
X0120050Y0042401D01*
X0120042Y0042650D01*
X0120028Y0042899D01*
X0120008Y0043148D01*
D17*
X0063451Y0003896D02*
X0060382Y0003896D01*
X0061917Y0003896D02*
X0061917Y0008500D01*
X0060382Y0006965D01*
X0058847Y0008500D02*
X0055778Y0003896D01*
X0058847Y0003896D02*
X0055778Y0008500D01*
M02*
